<svg width="40" height="40" viewBox="0 0 40 40" fill="none" xmlns="http://www.w3.org/2000/svg">
<g clip-path="url(#clip0_797_1610)">
<path fill-rule="evenodd" clip-rule="evenodd" d="M36.2074 9.57563L37.1449 7.27813C37.1449 7.27813 35.9517 6.00125 34.503 4.55438C33.0549 3.1075 29.9874 3.95875 29.9874 3.95875L26.4942 0H14.2249L10.7317 3.95875C10.7317 3.95875 7.66423 3.1075 6.2161 4.55438C4.76735 6.00125 3.57485 7.27813 3.57485 7.27813L4.51235 9.57563L3.3186 12.98C3.3186 12.98 6.82735 26.2525 7.2386 27.8737C8.04798 31.065 8.60173 32.2987 10.9024 33.9162C13.2024 35.5331 17.3774 38.3412 18.0586 38.7675C18.7405 39.1925 19.593 39.9175 20.3599 39.9175C21.1267 39.9175 21.9786 39.1925 22.6599 38.7675C23.3417 38.3419 27.5161 35.5331 29.8174 33.9162C32.1174 32.2994 32.6717 31.065 33.4811 27.8737C33.8917 26.2525 37.3999 12.98 37.3999 12.98L36.2074 9.57563Z" fill="url(#paint0_linear_797_1610)"/>
<path fill-rule="evenodd" clip-rule="evenodd" d="M24.705 7.19249C25.2163 7.19249 29.0081 6.46937 29.0081 6.46937C29.0081 6.46937 33.5013 11.8944 33.5013 13.0544C33.5013 14.0131 33.1144 14.3881 32.6594 14.8306C32.5644 14.9231 32.4656 15.0181 32.3675 15.1231L28.9987 18.6962C28.9626 18.7342 28.9259 18.7717 28.8888 18.8087C28.5525 19.1462 28.0575 19.6437 28.4063 20.47L28.4781 20.6381C28.8612 21.5331 29.3344 22.6381 28.7325 23.7569C28.0919 24.9481 26.995 25.7431 26.2919 25.6112C25.5894 25.48 23.9381 24.6181 23.3312 24.225C22.7244 23.8312 20.8 22.2462 20.8 21.6394C20.8 21.1337 22.1838 20.2925 22.8563 19.8831C22.99 19.8019 23.0956 19.7381 23.1562 19.6969C23.2256 19.65 23.3419 19.5781 23.485 19.4894C24.0981 19.1081 25.2063 18.4206 25.2344 18.1162C25.2688 17.74 25.2556 17.63 24.7606 16.7012C24.6556 16.5037 24.5325 16.2925 24.4056 16.0737C23.9344 15.2644 23.4069 14.3581 23.5244 13.7087C23.6556 12.9756 24.8056 12.5556 25.7794 12.1994C25.9006 12.1556 26.02 12.1119 26.1337 12.0687L27.1481 11.6881C28.1206 11.3244 29.2006 10.92 29.3794 10.8381C29.6256 10.725 29.5619 10.6162 28.815 10.5456C28.6941 10.5338 28.5733 10.5213 28.4525 10.5081C27.5275 10.41 25.8219 10.2294 24.9931 10.46C24.83 10.5056 24.6475 10.555 24.4556 10.6069C23.5244 10.8587 22.3825 11.1675 22.2725 11.3456C22.2538 11.3769 22.235 11.4037 22.2169 11.4287C22.1119 11.5775 22.0438 11.675 22.16 12.3075C22.1944 12.4962 22.2656 12.8669 22.3537 13.3256C22.61 14.6681 23.0119 16.7619 23.0625 17.2319C23.0694 17.2981 23.0775 17.3612 23.085 17.4225C23.1494 17.9475 23.1919 18.2969 22.5819 18.4362L22.4225 18.4725C21.7338 18.63 20.7244 18.8619 20.36 18.8619C19.995 18.8619 18.985 18.6306 18.2963 18.4725L18.1375 18.4362C17.5275 18.2969 17.5706 17.9475 17.635 17.4225C17.6425 17.3612 17.65 17.2975 17.6569 17.2319C17.7075 16.7612 18.11 14.6619 18.3675 13.32C18.455 12.8637 18.5256 12.495 18.56 12.3075C18.6756 11.675 18.6075 11.5775 18.5025 11.4287C18.4832 11.4014 18.4644 11.3737 18.4463 11.3456C18.3375 11.1675 17.1962 10.8587 16.2644 10.6069C16.0725 10.555 15.8894 10.5056 15.7269 10.46C14.8975 10.2287 13.1925 10.41 12.2675 10.5081C12.1263 10.5231 12.0038 10.5362 11.905 10.5456C11.1575 10.6162 11.0944 10.725 11.3406 10.8381C11.5188 10.92 12.5988 11.3244 13.5706 11.6881C13.9438 11.8275 14.3019 11.9612 14.5856 12.0687C14.7 12.1119 14.8187 12.155 14.9406 12.2C15.9144 12.5562 17.0644 12.9756 17.1956 13.7087C17.3125 14.3581 16.785 15.2644 16.3144 16.0737C16.1869 16.2925 16.0644 16.5037 15.9587 16.7012C15.4644 17.63 15.4512 17.74 15.4856 18.1162C15.5131 18.4212 16.6206 19.1081 17.2344 19.4894C17.3775 19.5781 17.4938 19.65 17.5631 19.6969C17.6244 19.7381 17.7294 19.8019 17.8631 19.8831C18.5356 20.2919 19.9194 21.1331 19.9194 21.6394C19.9194 22.2456 17.9956 23.8312 17.3881 24.225C16.7819 24.6187 15.1306 25.48 14.4275 25.6112C13.725 25.7425 12.6275 24.9481 11.9875 23.7575C11.3856 22.6381 11.8581 21.5331 12.2413 20.6387L12.3131 20.47C12.6625 19.6437 12.1675 19.1462 11.8306 18.8087C11.7937 18.7717 11.7572 18.7342 11.7213 18.6962L8.3525 15.1231C8.25375 15.0187 8.155 14.9231 8.06 14.8306C7.605 14.3887 7.21875 14.0131 7.21875 13.0544C7.21875 11.895 11.7119 6.46937 11.7119 6.46937C11.7119 6.46937 15.5031 7.19249 16.0144 7.19249C16.4225 7.19249 17.21 6.92187 18.0312 6.63937C18.2394 6.56812 18.4494 6.49562 18.6562 6.42687C19.6781 6.08624 20.36 6.08374 20.36 6.08374C20.36 6.08374 21.0413 6.08624 22.0638 6.42687C22.27 6.49562 22.4806 6.56812 22.6888 6.63937C23.5094 6.92187 24.2975 7.19249 24.705 7.19249ZM24.0544 26.3837C24.8556 26.7962 25.4244 27.0887 25.6394 27.2231C25.9175 27.3969 25.7481 27.725 25.4944 27.9044C25.2413 28.0825 21.8363 30.7162 21.5063 31.0075L21.3719 31.1269C21.0538 31.4137 20.6475 31.7794 20.3594 31.7794C20.0719 31.7794 19.6656 31.4131 19.3469 31.1269L19.2137 31.0075C18.8825 30.7162 15.4781 28.0825 15.225 27.9037C14.9719 27.725 14.8019 27.3975 15.08 27.2225C15.295 27.0887 15.8644 26.7956 16.6669 26.3825L17.4294 25.9894C18.6294 25.3694 20.1263 24.8412 20.36 24.8412C20.5931 24.8412 22.0894 25.3687 23.2906 25.9894C23.5631 26.1306 23.8188 26.2631 24.0544 26.3837Z" fill="white"/>
<path fill-rule="evenodd" clip-rule="evenodd" d="M29.9873 3.95875L26.4942 0H14.2248L10.7317 3.95875C10.7317 3.95875 7.66419 3.1075 6.21606 4.55438C6.21606 4.55438 10.3061 4.18562 11.7117 6.46937C11.7117 6.46937 15.5029 7.1925 16.0142 7.1925C16.5254 7.1925 17.6329 6.7675 18.6554 6.42687C19.6779 6.08625 20.3598 6.08375 20.3598 6.08375C20.3598 6.08375 21.0411 6.08625 22.0636 6.42687C23.0861 6.7675 24.1936 7.1925 24.7048 7.1925C25.2161 7.1925 29.0079 6.46937 29.0079 6.46937C30.4136 4.18562 34.5029 4.55438 34.5029 4.55438C33.0548 3.1075 29.9873 3.95875 29.9873 3.95875Z" fill="url(#paint1_linear_797_1610)"/>
</g>
<defs>
<linearGradient id="paint0_linear_797_1610" x1="3.31923" y1="40.1994" x2="37.3999" y2="40.1994" gradientUnits="userSpaceOnUse">
<stop stop-color="#FF5500"/>
<stop offset="0.41" stop-color="#FF5500"/>
<stop offset="0.582" stop-color="#FF2000"/>
<stop offset="1" stop-color="#FF2000"/>
</linearGradient>
<linearGradient id="paint1_linear_797_1610" x1="6.82356" y1="7.16625" x2="34.5029" y2="7.16625" gradientUnits="userSpaceOnUse">
<stop stop-color="#FF452A"/>
<stop offset="1" stop-color="#FF2000"/>
</linearGradient>
<clipPath id="clip0_797_1610">
<rect width="35" height="40" fill="white" transform="translate(2.8999)"/>
</clipPath>
</defs>
</svg>
