<svg width="40" height="40" viewBox="0 0 40 40" fill="none" xmlns="http://www.w3.org/2000/svg">
<g clip-path="url(#clip0_797_1611)">
<path d="M20 20.0002L28.6604 25.0001L20 40.0001C31.0457 40.0001 39.9999 31.0458 39.9999 20.0002C39.9999 16.3562 39.0205 12.9428 37.3177 10.0001H19.9998L20 20.0002Z" fill="url(#paint0_linear_797_1611)"/>
<path d="M19.9998 0C12.5972 0 6.13894 4.0246 2.68066 10.0024L11.3393 25L19.9998 20.0001V10.0001H37.3177C33.8589 4.02371 27.4015 0 19.9998 0Z" fill="url(#paint1_linear_797_1611)"/>
<path d="M0.000118111 20.0002C0.000118111 31.0458 8.95407 40 20.0001 40L28.6605 25L20.0001 20.0002L11.3396 25L2.68093 10.0024C0.979047 12.9443 0 16.3565 0 19.9999" fill="url(#paint2_linear_797_1611)"/>
<path d="M30.0002 20.0002C30.0002 25.523 25.523 30.0003 20.0001 30.0003C14.4773 30.0003 10 25.523 10 20.0002C10 14.4774 14.4773 10.0001 20.0001 10.0001C25.523 10.0001 30.0002 14.4774 30.0002 20.0002Z" fill="white"/>
<path d="M28.1252 20.0002C28.1252 24.4875 24.4874 28.1253 20.0001 28.1253C15.5128 28.1253 11.875 24.4875 11.875 20.0002C11.875 15.5129 15.5128 11.8751 20.0001 11.8751C24.4874 11.8751 28.1252 15.5129 28.1252 20.0002Z" fill="url(#paint3_linear_797_1611)"/>
</g>
<defs>
<linearGradient id="paint0_linear_797_1611" x1="30.0425" y1="9.95884" x2="29.9998" y2="40" gradientUnits="userSpaceOnUse">
<stop stop-color="#AFCCFB"/>
<stop offset="1" stop-color="#8BB5F8"/>
</linearGradient>
<linearGradient id="paint1_linear_797_1611" x1="17.0993" y1="0.304714" x2="18.7524" y2="27.1813" gradientUnits="userSpaceOnUse">
<stop stop-color="#1972E7"/>
<stop offset="1" stop-color="#1969D5"/>
</linearGradient>
<linearGradient id="paint2_linear_797_1611" x1="14.3303" y1="10.0024" x2="14.3303" y2="40" gradientUnits="userSpaceOnUse">
<stop stop-color="#659CF6"/>
<stop offset="1" stop-color="#4285F4"/>
</linearGradient>
<linearGradient id="paint3_linear_797_1611" x1="19.9173" y1="11.906" x2="20.0001" y2="28.1253" gradientUnits="userSpaceOnUse">
<stop stop-color="#3680F0"/>
<stop offset="1" stop-color="#2678EC"/>
</linearGradient>
<clipPath id="clip0_797_1611">
<rect width="40" height="40" fill="white"/>
</clipPath>
</defs>
</svg>
