<svg width="40" height="40" viewBox="0 0 40 40" fill="none" xmlns="http://www.w3.org/2000/svg">
<path d="M38.3258 13.4189C37.4855 11.393 35.7748 9.20213 34.4342 8.51184C35.3896 10.3626 36.0499 12.3434 36.4 14.3943L36.405 14.4293C34.2091 8.96203 30.4926 6.76111 27.4563 1.9641C27.3012 1.719 27.1462 1.4739 27.0011 1.2238C26.9261 1.09374 26.856 0.958685 26.786 0.823628C26.661 0.578526 26.5609 0.323419 26.4959 0.0583086C26.4959 0.0332982 26.4759 0.0132898 26.4509 0.00828773C26.4409 -0.00171645 26.4309 -0.00171645 26.4159 0.00328564C26.4109 0.00328564 26.4109 0.00828773 26.4059 0.00828773C26.4009 0.00828773 26.3959 0.0132898 26.3909 0.0182919L26.3959 0.00328564C21.5238 2.85448 19.8731 8.13168 19.7231 10.7728C17.7773 10.9078 15.9215 11.6231 14.3858 12.8286C14.2258 12.6936 14.0607 12.5685 13.8856 12.4485C13.4454 10.9028 13.4254 9.26716 13.8306 7.71151C12.0399 8.57687 10.4542 9.80738 9.16366 11.318H9.15365C8.38333 10.3426 8.43835 7.13126 8.48337 6.46098C8.25828 6.55102 8.03818 6.66607 7.8381 6.80613C7.15782 7.29133 6.52755 7.83156 5.94231 8.42681C5.27703 9.10209 4.67178 9.82739 4.13155 10.6027C2.88603 12.3685 2.00066 14.3643 1.53047 16.4752L1.51046 16.6052C1.44043 17.0054 1.3754 17.4106 1.32038 17.8157C1.32038 17.8307 1.31538 17.8457 1.31538 17.8557C1.1453 18.7361 1.04026 19.6315 1.00024 20.5269V20.6269C1.01025 31.3364 9.69888 40.005 20.4034 40C29.8323 39.99 37.8907 33.2022 39.4913 23.9083C39.5263 23.6582 39.5513 23.4131 39.5814 23.158C39.9815 19.8566 39.5463 16.5102 38.3258 13.4189ZM15.9815 28.5952C16.0715 28.6402 16.1566 28.6853 16.2516 28.7253L16.2666 28.7353C16.1666 28.6903 16.0715 28.6452 15.9815 28.5952Z" fill="url(#paint0_linear_797_1630)"/>
<path d="M38.3256 13.4189C37.4852 11.393 35.7745 9.20213 34.434 8.51184C35.3894 10.3626 36.0496 12.3434 36.3998 14.3943V14.4143L36.4048 14.4343C37.9004 18.7111 37.6853 23.3981 35.7995 27.5198C33.5786 32.2868 28.2014 37.1738 19.7828 36.9387C10.684 36.6786 2.6707 29.9308 1.17507 21.0871C0.899958 19.6915 1.17507 18.9862 1.31013 17.8507C1.12505 18.7311 1.02001 19.6265 1 20.5269V20.6269C1.01 31.3364 9.69863 40.005 20.4031 39.995C29.832 39.985 37.8904 33.1972 39.4911 23.9033C39.5261 23.6532 39.5511 23.4081 39.5811 23.153C39.9813 19.8566 39.5461 16.5102 38.3256 13.4189Z" fill="url(#paint1_radial_797_1630)"/>
<path d="M38.3256 13.4189C37.4852 11.393 35.7745 9.20213 34.434 8.51184C35.3894 10.3626 36.0496 12.3434 36.3998 14.3943V14.4143L36.4048 14.4343C37.9004 18.7111 37.6853 23.3981 35.7995 27.5198C33.5786 32.2868 28.2014 37.1738 19.7828 36.9387C10.684 36.6786 2.6707 29.9308 1.17507 21.0871C0.899958 19.6915 1.17507 18.9862 1.31013 17.8507C1.12505 18.7311 1.02001 19.6265 1 20.5269V20.6269C1.01 31.3364 9.69863 40.005 20.4031 39.995C29.832 39.985 37.8904 33.1972 39.4911 23.9033C39.5261 23.6532 39.5511 23.4081 39.5811 23.153C39.9813 19.8566 39.5461 16.5102 38.3256 13.4189Z" fill="url(#paint2_radial_797_1630)"/>
<path d="M28.9017 15.6999L29.0218 15.7899C28.5366 14.9245 27.9263 14.1342 27.221 13.4439C21.1985 7.41139 25.6454 0.373451 26.3907 0.0133001L26.3957 0.0032959C21.5237 2.85449 19.873 8.13169 19.7229 10.7728C19.948 10.7578 20.1731 10.7378 20.4032 10.7378C23.9247 10.7428 27.171 12.6386 28.9017 15.6999Z" fill="url(#paint3_radial_797_1630)"/>
<path d="M20.4181 16.9004C20.3881 17.3806 18.6824 19.0463 18.0871 19.0463C12.5748 19.0463 11.6794 22.3827 11.6794 22.3827C11.9245 25.1888 13.8804 27.5048 16.2464 28.7253C16.3564 28.7803 16.4614 28.8304 16.5715 28.8804C16.7616 28.9654 16.9516 29.0404 17.1417 29.1155C17.9521 29.4006 18.8024 29.5657 19.6628 29.6007C29.3268 30.0559 31.1976 18.0458 24.2247 14.5594C25.8704 14.3443 27.5361 14.7495 28.9016 15.6949C27.1659 12.6336 23.9246 10.7428 20.4081 10.7328C20.178 10.7328 19.9529 10.7528 19.7278 10.7678C17.782 10.9029 15.9262 11.6182 14.3906 12.8237C14.6857 13.0738 15.0208 13.4089 15.7211 14.0992C17.0367 15.3997 20.4131 16.7453 20.4181 16.9004Z" fill="url(#paint4_radial_797_1630)"/>
<path d="M20.4181 16.9004C20.3881 17.3806 18.6824 19.0463 18.0871 19.0463C12.5748 19.0463 11.6794 22.3827 11.6794 22.3827C11.9245 25.1888 13.8804 27.5048 16.2464 28.7253C16.3564 28.7803 16.4614 28.8304 16.5715 28.8804C16.7616 28.9654 16.9516 29.0404 17.1417 29.1155C17.9521 29.4006 18.8024 29.5657 19.6628 29.6007C29.3268 30.0559 31.1976 18.0458 24.2247 14.5594C25.8704 14.3443 27.5361 14.7495 28.9016 15.6949C27.1659 12.6336 23.9246 10.7428 20.4081 10.7328C20.178 10.7328 19.9529 10.7528 19.7278 10.7678C17.782 10.9029 15.9262 11.6182 14.3906 12.8237C14.6857 13.0738 15.0208 13.4089 15.7211 14.0992C17.0367 15.3997 20.4131 16.7453 20.4181 16.9004Z" fill="url(#paint5_radial_797_1630)"/>
<path d="M13.4854 12.1834C13.6404 12.2835 13.7705 12.3685 13.8855 12.4485C13.4454 10.9029 13.4254 9.2672 13.8305 7.71155C12.0398 8.57691 10.4541 9.80742 9.16357 11.3181C9.26362 11.3131 12.0748 11.263 13.4854 12.1834Z" fill="url(#paint6_radial_797_1630)"/>
<path d="M1.17524 21.087C2.67086 29.9257 10.6842 36.6786 19.778 36.9337C28.1965 37.1738 33.5738 32.2867 35.7947 27.5147C37.6755 23.393 37.8906 18.7061 36.3999 14.4293V14.4093C36.3999 14.3942 36.3949 14.3842 36.3999 14.3892L36.405 14.4243C37.0952 18.9161 34.8093 23.263 31.2378 26.2042L31.2278 26.2292C24.2699 31.8966 17.6121 29.6456 16.2665 28.7302C16.1715 28.6852 16.0765 28.6402 15.9864 28.5902C11.9297 26.6494 10.254 22.9578 10.6142 19.7865C8.64836 19.8165 6.8476 18.681 6.02226 16.8953C8.18816 15.5697 10.8843 15.4597 13.1502 16.6102C15.4462 17.6506 18.0573 17.7557 20.4283 16.8953C20.4233 16.7402 17.0469 15.3947 15.7313 14.0991C15.026 13.4038 14.6959 13.0737 14.4008 12.8236C14.2407 12.6885 14.0756 12.5635 13.9006 12.4434C13.7855 12.3634 13.6554 12.2784 13.5004 12.1783C12.0848 11.2579 9.27362 11.308 9.17858 11.313H9.16857C8.39825 10.3376 8.45328 7.12621 8.49829 6.45593C8.2732 6.54597 8.05311 6.66102 7.85302 6.80108C7.17274 7.28628 6.54248 7.82651 5.95723 8.42676C5.29196 9.09704 4.6817 9.82234 4.13647 10.5977V10.6027C2.89095 12.3684 2.00558 14.3642 1.53539 16.4751C1.52538 16.5151 0.840096 19.5264 1.17524 21.087Z" fill="url(#paint7_radial_797_1630)"/>
<path d="M27.2209 13.4389C27.9262 14.1342 28.5364 14.9245 29.0216 15.7899C29.1267 15.8699 29.2267 15.9499 29.3118 16.03C33.7086 20.0817 31.4026 25.8091 31.2326 26.2192C34.804 23.278 37.085 18.9262 36.3997 14.4343C34.2088 8.96203 30.4922 6.76111 27.456 1.9641C27.3009 1.719 27.1458 1.4739 27.0008 1.2238C26.9258 1.09374 26.8557 0.958685 26.7857 0.823628C26.6606 0.578526 26.5606 0.323419 26.4956 0.0583086C26.4956 0.0332982 26.4756 0.0132898 26.4506 0.00828773C26.4406 -0.00171645 26.4305 -0.00171645 26.4155 0.00328564C26.4105 0.00328564 26.4105 0.00828773 26.4055 0.00828773C26.4005 0.00828773 26.3955 0.0132898 26.3905 0.0182919C25.6452 0.37344 21.1984 7.41138 27.2209 13.4389Z" fill="url(#paint8_radial_797_1630)"/>
<path d="M29.3118 16.025C29.2168 15.94 29.1217 15.86 29.0217 15.7849L28.9016 15.6949C27.5361 14.7495 25.8704 14.3443 24.2247 14.5594C31.1976 18.0459 29.3268 30.0509 19.6628 29.6007C18.8024 29.5657 17.952 29.4006 17.1417 29.1155C16.9516 29.0455 16.7616 28.9654 16.5715 28.8804C16.4614 28.8304 16.3514 28.7804 16.2463 28.7253L16.2613 28.7353C17.6069 29.6557 24.2647 31.9017 31.2226 26.2343L31.2326 26.2093C31.4077 25.8041 33.7086 20.0767 29.3118 16.025Z" fill="url(#paint9_radial_797_1630)"/>
<path d="M11.6796 22.3826C11.6796 22.3826 12.5749 19.0462 18.0873 19.0462C18.6825 19.0462 20.3882 17.3805 20.4182 16.9003C18.0472 17.7607 15.4361 17.6557 13.1402 16.6152C10.8742 15.4647 8.17811 15.5748 6.01221 16.9003C6.83755 18.6861 8.6383 19.8166 10.6041 19.7916C10.244 22.9629 11.9197 26.6544 15.9764 28.5952C16.0664 28.6403 16.1514 28.6853 16.2465 28.7253C13.8805 27.5048 11.9247 25.1888 11.6796 22.3826Z" fill="url(#paint10_radial_797_1630)"/>
<path d="M38.3258 13.4189C37.4855 11.393 35.7748 9.20213 34.4342 8.51184C35.3896 10.3626 36.0499 12.3434 36.4 14.3943L36.405 14.4293C34.2091 8.96203 30.4926 6.76111 27.4563 1.9641C27.3012 1.719 27.1462 1.4739 27.0011 1.2238C26.9261 1.09374 26.856 0.958685 26.786 0.823628C26.661 0.578526 26.5609 0.323419 26.4959 0.0583086C26.4959 0.0332982 26.4759 0.0132898 26.4509 0.00828773C26.4409 -0.00171645 26.4309 -0.00171645 26.4159 0.00328564C26.4109 0.00328564 26.4109 0.00828773 26.4059 0.00828773C26.4009 0.00828773 26.3959 0.0132898 26.3909 0.0182919L26.3959 0.00328564C21.5238 2.85448 19.8731 8.13168 19.7231 10.7728C19.9482 10.7578 20.1733 10.7378 20.4034 10.7378C23.9198 10.7428 27.1662 12.6386 28.8969 15.6998C27.5313 14.7544 25.8656 14.3493 24.2199 14.5644C31.1929 18.0508 29.3221 30.0558 19.658 29.6057C18.7977 29.5706 17.9473 29.4056 17.137 29.1204C16.9469 29.0504 16.7568 28.9704 16.5667 28.8854C16.4567 28.8353 16.3467 28.7853 16.2416 28.7303L16.2566 28.7403C16.1616 28.6953 16.0665 28.6503 15.9765 28.6002C16.0665 28.6453 16.1516 28.6903 16.2466 28.7303C13.8806 27.5048 11.9248 25.1938 11.6797 22.3876C11.6797 22.3876 12.5751 19.0512 18.0874 19.0512C18.6826 19.0512 20.3883 17.3855 20.4184 16.9053C20.4134 16.7503 17.0369 15.4047 15.7214 14.1092C15.0161 13.4139 14.686 13.0838 14.3908 12.8336C14.2308 12.6986 14.0657 12.5735 13.8906 12.4535C13.4504 10.9078 13.4304 9.27216 13.8356 7.71651C12.0449 8.58187 10.4592 9.81238 9.16866 11.323H9.15865C8.38833 10.3476 8.44335 7.13627 8.48837 6.46599C8.26328 6.55602 8.04319 6.67107 7.8431 6.81113C7.16282 7.29633 6.53256 7.83656 5.94731 8.43181C5.28203 9.10709 4.67678 9.83239 4.13655 10.6077V10.6127V10.6027C2.89103 12.3685 2.00566 14.3643 1.53547 16.4752L1.51046 16.6052C1.47544 16.7753 1.31037 17.6407 1.28536 17.8257C1.28536 17.8407 1.28536 17.8107 1.28536 17.8257C1.1353 18.7211 1.04026 19.6215 1.00024 20.5269V20.6269C1.01025 31.3364 9.69888 40.005 20.4034 40C29.8323 39.99 37.8907 33.2022 39.4913 23.9083C39.5263 23.6582 39.5513 23.4131 39.5814 23.158C39.9815 19.8566 39.5463 16.5102 38.3258 13.4189Z" fill="url(#paint11_linear_797_1630)"/>
<defs>
<linearGradient id="paint0_linear_797_1630" x1="35.7552" y1="6.19472" x2="3.57226" y2="37.2452" gradientUnits="userSpaceOnUse">
<stop offset="0.048" stop-color="#FFF44F"/>
<stop offset="0.111" stop-color="#FFE847"/>
<stop offset="0.225" stop-color="#FFC830"/>
<stop offset="0.368" stop-color="#FF980E"/>
<stop offset="0.401" stop-color="#FF8B16"/>
<stop offset="0.462" stop-color="#FF672A"/>
<stop offset="0.534" stop-color="#FF3647"/>
<stop offset="0.705" stop-color="#E31587"/>
</linearGradient>
<radialGradient id="paint1_radial_797_1630" cx="0" cy="0" r="1" gradientUnits="userSpaceOnUse" gradientTransform="translate(34.2704 4.43959) scale(40.4154 40.4154)">
<stop offset="0.129" stop-color="#FFBD4F"/>
<stop offset="0.186" stop-color="#FFAC31"/>
<stop offset="0.247" stop-color="#FF9D17"/>
<stop offset="0.283" stop-color="#FF980E"/>
<stop offset="0.403" stop-color="#FF563B"/>
<stop offset="0.467" stop-color="#FF3750"/>
<stop offset="0.71" stop-color="#F5156C"/>
<stop offset="0.782" stop-color="#EB0878"/>
<stop offset="0.86" stop-color="#E50080"/>
</radialGradient>
<radialGradient id="paint2_radial_797_1630" cx="0" cy="0" r="1" gradientUnits="userSpaceOnUse" gradientTransform="translate(19.5023 20.9626) scale(40.4154 40.4154)">
<stop offset="0.3" stop-color="#960E18"/>
<stop offset="0.351" stop-color="#B11927" stop-opacity="0.74"/>
<stop offset="0.435" stop-color="#DB293D" stop-opacity="0.343"/>
<stop offset="0.497" stop-color="#F5334B" stop-opacity="0.094"/>
<stop offset="0.53" stop-color="#FF3750" stop-opacity="0"/>
</radialGradient>
<radialGradient id="paint3_radial_797_1630" cx="0" cy="0" r="1" gradientUnits="userSpaceOnUse" gradientTransform="translate(24.375 -4.73218) scale(29.2781)">
<stop offset="0.132" stop-color="#FFF44F"/>
<stop offset="0.252" stop-color="#FFDC3E"/>
<stop offset="0.506" stop-color="#FF9D12"/>
<stop offset="0.526" stop-color="#FF980E"/>
</radialGradient>
<radialGradient id="paint4_radial_797_1630" cx="0" cy="0" r="1" gradientUnits="userSpaceOnUse" gradientTransform="translate(15.0319 31.5193) scale(19.2435 19.2435)">
<stop offset="0.353" stop-color="#3A8EE6"/>
<stop offset="0.472" stop-color="#5C79F0"/>
<stop offset="0.669" stop-color="#9059FF"/>
<stop offset="1" stop-color="#C139E6"/>
</radialGradient>
<radialGradient id="paint5_radial_797_1630" cx="0" cy="0" r="1" gradientTransform="matrix(9.91709 -2.39765 -2.80576 -11.6107 21.7106 17.6504)" gradientUnits="userSpaceOnUse">
<stop offset="0.206" stop-color="#9059FF" stop-opacity="0"/>
<stop offset="0.278" stop-color="#8C4FF3" stop-opacity="0.064"/>
<stop offset="0.747" stop-color="#7716A8" stop-opacity="0.45"/>
<stop offset="0.975" stop-color="#6E008B" stop-opacity="0.6"/>
</radialGradient>
<radialGradient id="paint6_radial_797_1630" cx="0" cy="0" r="1" gradientUnits="userSpaceOnUse" gradientTransform="translate(18.9922 2.78609) scale(13.8438 13.8438)">
<stop stop-color="#FFE226"/>
<stop offset="0.121" stop-color="#FFDB27"/>
<stop offset="0.295" stop-color="#FFC82A"/>
<stop offset="0.502" stop-color="#FFA930"/>
<stop offset="0.732" stop-color="#FF7E37"/>
<stop offset="0.792" stop-color="#FF7139"/>
</radialGradient>
<radialGradient id="paint7_radial_797_1630" cx="0" cy="0" r="1" gradientUnits="userSpaceOnUse" gradientTransform="translate(29.8737 -5.99497) scale(59.0652 59.0652)">
<stop offset="0.113" stop-color="#FFF44F"/>
<stop offset="0.456" stop-color="#FF980E"/>
<stop offset="0.622" stop-color="#FF5634"/>
<stop offset="0.716" stop-color="#FF3647"/>
<stop offset="0.904" stop-color="#E31587"/>
</radialGradient>
<radialGradient id="paint8_radial_797_1630" cx="0" cy="0" r="1" gradientTransform="matrix(4.5431 43.0512 28.2537 -2.98546 24.8953 -2.7105)" gradientUnits="userSpaceOnUse">
<stop stop-color="#FFF44F"/>
<stop offset="0.06" stop-color="#FFE847"/>
<stop offset="0.168" stop-color="#FFC830"/>
<stop offset="0.304" stop-color="#FF980E"/>
<stop offset="0.356" stop-color="#FF8B16"/>
<stop offset="0.455" stop-color="#FF672A"/>
<stop offset="0.57" stop-color="#FF3647"/>
<stop offset="0.737" stop-color="#E31587"/>
</radialGradient>
<radialGradient id="paint9_radial_797_1630" cx="0" cy="0" r="1" gradientUnits="userSpaceOnUse" gradientTransform="translate(18.6659 7.91374) scale(36.8754)">
<stop offset="0.137" stop-color="#FFF44F"/>
<stop offset="0.48" stop-color="#FF980E"/>
<stop offset="0.592" stop-color="#FF5634"/>
<stop offset="0.655" stop-color="#FF3647"/>
<stop offset="0.904" stop-color="#E31587"/>
</radialGradient>
<radialGradient id="paint10_radial_797_1630" cx="0" cy="0" r="1" gradientUnits="userSpaceOnUse" gradientTransform="translate(28.4001 10.0718) scale(40.3599 40.3599)">
<stop offset="0.094" stop-color="#FFF44F"/>
<stop offset="0.231" stop-color="#FFE141"/>
<stop offset="0.509" stop-color="#FFAF1E"/>
<stop offset="0.626" stop-color="#FF980E"/>
</radialGradient>
<linearGradient id="paint11_linear_797_1630" x1="35.369" y1="6.02915" x2="7.98451" y2="33.4131" gradientUnits="userSpaceOnUse">
<stop offset="0.167" stop-color="#FFF44F" stop-opacity="0.8"/>
<stop offset="0.266" stop-color="#FFF44F" stop-opacity="0.634"/>
<stop offset="0.489" stop-color="#FFF44F" stop-opacity="0.217"/>
<stop offset="0.6" stop-color="#FFF44F" stop-opacity="0"/>
</linearGradient>
</defs>
</svg>
