<svg width="44" height="44" viewBox="0 0 44 44" fill="none" xmlns="http://www.w3.org/2000/svg">
<g opacity="0.95" filter="url(#filter0_f_797_1698)">
<path d="M40.0627 22.0858C40.0627 26.9242 38.16 31.5686 34.7653 35.0162C31.3706 38.4639 26.7562 40.4383 21.9184 40.5131C17.0805 40.588 12.4073 38.7574 8.90752 35.4164C5.40775 32.0755 3.36219 27.4923 3.21245 22.6562C3.06271 17.8201 4.8208 13.1191 8.10717 9.568C11.3935 6.01694 15.9446 3.9007 20.7778 3.67613C25.611 3.45156 30.3386 5.13669 33.9401 8.36771C37.5416 11.5987 39.728 16.1165 40.0274 20.9456" fill="#1A1A1A"/>
</g>
<g opacity="0.95" filter="url(#filter1_f_797_1698)">
<path d="M40.0627 22.0858C40.0627 26.9242 38.16 31.5686 34.7653 35.0162C31.3706 38.4639 26.7562 40.4383 21.9184 40.5131C17.0805 40.588 12.4073 38.7574 8.90752 35.4164C5.40775 32.0755 3.36219 27.4923 3.21245 22.6562C3.06271 17.8201 4.8208 13.1191 8.10717 9.568C11.3935 6.01694 15.9446 3.9007 20.7778 3.67613C25.611 3.45156 30.3386 5.13669 33.9401 8.36771C37.5416 11.5987 39.728 16.1165 40.0274 20.9456" fill="#1A1A1A"/>
</g>
<path opacity="0.95" d="M40.0627 22.0858C40.0627 26.9242 38.16 31.5686 34.7653 35.0162C31.3706 38.4639 26.7562 40.4383 21.9184 40.5131C17.0805 40.588 12.4073 38.7574 8.90752 35.4164C5.40775 32.0755 3.36219 27.4923 3.21245 22.6562C3.06271 17.8201 4.8208 13.1191 8.10717 9.568C11.3935 6.01694 15.9446 3.9007 20.7778 3.67613C25.611 3.45156 30.3386 5.13669 33.9401 8.36771C37.5416 11.5987 39.728 16.1165 40.0274 20.9456" fill="#1A1A1A"/>
<g filter="url(#filter2_f_797_1698)">
<path d="M25.7652 2.85632L21.0105 16.3919L39.7347 13.2417C36.9613 7.91557 31.8521 4.00177 25.7652 2.85632Z" fill="black"/>
</g>
<g filter="url(#filter3_f_797_1698)">
<path d="M40.3209 15.9324L26.2214 18.5824L38.3117 33.223C41.5375 28.1581 42.3724 21.7765 40.3209 15.9324Z" fill="black"/>
</g>
<g filter="url(#filter4_f_797_1698)">
<path d="M36.2746 35.076L26.9299 24.1906L20.2959 41.9813C26.2951 42.2425 32.2392 39.7747 36.2746 35.076Z" fill="black"/>
</g>
<g filter="url(#filter5_f_797_1698)">
<path d="M17.6726 41.1437L22.4273 27.6082L3.70312 30.7583C6.4765 36.0844 11.5857 39.9982 17.6726 41.1437Z" fill="black"/>
</g>
<g filter="url(#filter6_f_797_1698)">
<path d="M3.11688 28.0678L17.2163 25.4178L5.12613 10.7772C1.90026 15.8421 1.06542 22.2237 3.11688 28.0678Z" fill="black"/>
</g>
<g filter="url(#filter7_f_797_1698)">
<path d="M7.16309 8.92405L16.5078 19.8095L23.1418 2.01881C17.1426 1.75757 11.1985 4.22537 7.16309 8.92405Z" fill="black"/>
</g>
<g filter="url(#filter8_f_797_1698)">
<path d="M24.4618 22.0001C24.4618 22.7276 24.1728 23.4253 23.6584 23.9397C23.144 24.4541 22.4463 24.7431 21.7188 24.7431C20.9913 24.7431 20.2936 24.4541 19.7792 23.9397C19.2648 23.4253 18.9758 22.7276 18.9758 22.0001C18.9758 21.2726 19.2648 20.5749 19.7792 20.0605C20.2936 19.5461 20.9913 19.2571 21.7188 19.2571C22.4463 19.2571 23.144 19.5461 23.6584 20.0605C24.1728 20.5749 24.4618 21.2726 24.4618 22.0001Z" fill="black"/>
</g>
<path d="M25.7652 2.85632L21.0105 16.3919L39.7347 13.2417C36.9613 7.91557 31.8521 4.00177 25.7652 2.85632Z" fill="url(#paint0_linear_797_1698)"/>
<path d="M40.3209 15.9324L26.2214 18.5824L38.3117 33.223C41.5375 28.1581 42.3724 21.7765 40.3209 15.9324Z" fill="url(#paint1_linear_797_1698)"/>
<path d="M36.2746 35.076L26.9299 24.1906L20.2959 41.9813C26.2951 42.2425 32.2392 39.7747 36.2746 35.076Z" fill="url(#paint2_linear_797_1698)"/>
<path d="M17.6726 41.1437L22.4273 27.6082L3.70312 30.7583C6.4765 36.0844 11.5857 39.9982 17.6726 41.1437Z" fill="url(#paint3_linear_797_1698)"/>
<path d="M3.11688 28.0678L17.2163 25.4178L5.12613 10.7772C1.90026 15.8421 1.06542 22.2237 3.11688 28.0678Z" fill="url(#paint4_linear_797_1698)"/>
<path d="M7.16309 8.92405L16.5078 19.8095L23.1418 2.01881C17.1426 1.75757 11.1985 4.22537 7.16309 8.92405Z" fill="url(#paint5_linear_797_1698)"/>
<path d="M24.4618 22.0001C24.4618 22.7276 24.1728 23.4253 23.6584 23.9397C23.144 24.4541 22.4463 24.7431 21.7188 24.7431C20.9913 24.7431 20.2936 24.4541 19.7792 23.9397C19.2648 23.4253 18.9758 22.7276 18.9758 22.0001C18.9758 21.2726 19.2648 20.5749 19.7792 20.0605C20.2936 19.5461 20.9913 19.2571 21.7188 19.2571C22.4463 19.2571 23.144 19.5461 23.6584 20.0605C24.1728 20.5749 24.4618 21.2726 24.4618 22.0001Z" fill="url(#paint6_linear_797_1698)"/>
<g opacity="0.5">
<g opacity="0.15" filter="url(#filter9_f_797_1698)">
<path d="M22.2976 15.3058C27.657 14.3858 33.0291 13.5397 38.3806 12.5736C35.7529 8.21254 31.3078 4.95959 26.3184 3.849C24.9781 7.66795 23.6379 11.4869 22.2976 15.3058Z" fill="white"/>
</g>
<g opacity="0.25" filter="url(#filter10_f_797_1698)">
<path d="M27.8076 19.1578C31.2812 23.3399 34.7006 27.567 38.2144 31.7156C40.6763 27.2648 41.2654 21.78 39.7386 16.9104C35.7616 17.6595 31.7846 18.4087 27.8076 19.1578Z" fill="white"/>
</g>
<g opacity="0.15" filter="url(#filter11_f_797_1698)">
<path d="M21.5208 41.142C26.6455 41.0519 31.6724 38.8272 35.1286 35.0667C32.4936 31.9951 29.8587 28.9235 27.2237 25.8519C25.3227 30.9486 23.4217 36.0453 21.5208 41.142Z" fill="white"/>
</g>
<g opacity="0.15" filter="url(#filter12_f_797_1698)">
<path d="M5.04126 31.4023C7.66197 35.7685 12.1144 39.0346 17.1196 40.1509C18.4598 36.332 19.8001 32.513 21.1403 28.6941C15.774 29.5968 10.4076 30.4995 5.04126 31.4023Z" fill="white"/>
</g>
<g opacity="0.25" filter="url(#filter13_f_797_1698)">
<path d="M5.19653 12.3326C2.75242 16.7773 2.18019 22.2434 3.69913 27.0896C7.67791 26.3404 11.6567 25.5913 15.6355 24.8422C12.1692 20.6473 8.70296 16.4524 5.23671 12.2576L5.19653 12.3326Z" fill="white"/>
</g>
<g opacity="0.15" filter="url(#filter14_f_797_1698)">
<path d="M21.8663 2.86059C16.7748 2.95078 11.7574 5.1888 8.30664 8.93055C10.9425 12.003 13.5783 15.0755 16.2142 18.148C18.1152 13.0513 20.0162 7.9546 21.9172 2.85791L21.8663 2.86059Z" fill="white"/>
</g>
<g opacity="0.15" filter="url(#filter15_f_797_1698)">
<path d="M21.6144 20.1168C20.0818 20.1008 19.1942 22.3137 20.3661 23.3313C21.255 24.2459 23.0582 23.9747 23.4707 22.7178C23.92 21.6375 23.1867 20.2289 21.9894 20.1329C21.865 20.1155 21.7399 20.1087 21.6144 20.1168Z" fill="white"/>
</g>
</g>
<defs>
<filter id="filter0_f_797_1698" x="1.72925" y="2.18188" width="39.8079" height="39.8079" filterUnits="userSpaceOnUse" color-interpolation-filters="sRGB">
<feFlood flood-opacity="0" result="BackgroundImageFix"/>
<feBlend mode="normal" in="SourceGraphic" in2="BackgroundImageFix" result="shape"/>
<feGaussianBlur stdDeviation="0.737183" result="effect1_foregroundBlur_797_1698"/>
</filter>
<filter id="filter1_f_797_1698" x="1.72925" y="2.18189" width="39.8079" height="39.8079" filterUnits="userSpaceOnUse" color-interpolation-filters="sRGB">
<feFlood flood-opacity="0" result="BackgroundImageFix"/>
<feBlend mode="normal" in="SourceGraphic" in2="BackgroundImageFix" result="shape"/>
<feGaussianBlur stdDeviation="0.737181" result="effect1_foregroundBlur_797_1698"/>
</filter>
<filter id="filter2_f_797_1698" x="19.4217" y="1.26757" width="21.9016" height="16.713" filterUnits="userSpaceOnUse" color-interpolation-filters="sRGB">
<feFlood flood-opacity="0" result="BackgroundImageFix"/>
<feBlend mode="normal" in="SourceGraphic" in2="BackgroundImageFix" result="shape"/>
<feGaussianBlur stdDeviation="0.794378" result="effect1_foregroundBlur_797_1698"/>
</filter>
<filter id="filter3_f_797_1698" x="24.6286" y="14.3395" width="18.402" height="20.4763" filterUnits="userSpaceOnUse" color-interpolation-filters="sRGB">
<feFlood flood-opacity="0" result="BackgroundImageFix"/>
<feBlend mode="normal" in="SourceGraphic" in2="BackgroundImageFix" result="shape"/>
<feGaussianBlur stdDeviation="0.79642" result="effect1_foregroundBlur_797_1698"/>
</filter>
<filter id="filter4_f_797_1698" x="18.7071" y="22.6018" width="19.1563" height="20.9871" filterUnits="userSpaceOnUse" color-interpolation-filters="sRGB">
<feFlood flood-opacity="0" result="BackgroundImageFix"/>
<feBlend mode="normal" in="SourceGraphic" in2="BackgroundImageFix" result="shape"/>
<feGaussianBlur stdDeviation="0.794378" result="effect1_foregroundBlur_797_1698"/>
</filter>
<filter id="filter5_f_797_1698" x="2.11437" y="26.0194" width="21.9016" height="16.713" filterUnits="userSpaceOnUse" color-interpolation-filters="sRGB">
<feFlood flood-opacity="0" result="BackgroundImageFix"/>
<feBlend mode="normal" in="SourceGraphic" in2="BackgroundImageFix" result="shape"/>
<feGaussianBlur stdDeviation="0.794378" result="effect1_foregroundBlur_797_1698"/>
</filter>
<filter id="filter6_f_797_1698" x="0.411245" y="9.18847" width="18.3938" height="20.4682" filterUnits="userSpaceOnUse" color-interpolation-filters="sRGB">
<feFlood flood-opacity="0" result="BackgroundImageFix"/>
<feBlend mode="normal" in="SourceGraphic" in2="BackgroundImageFix" result="shape"/>
<feGaussianBlur stdDeviation="0.794378" result="effect1_foregroundBlur_797_1698"/>
</filter>
<filter id="filter7_f_797_1698" x="5.57433" y="0.411245" width="19.1563" height="20.9871" filterUnits="userSpaceOnUse" color-interpolation-filters="sRGB">
<feFlood flood-opacity="0" result="BackgroundImageFix"/>
<feBlend mode="normal" in="SourceGraphic" in2="BackgroundImageFix" result="shape"/>
<feGaussianBlur stdDeviation="0.794378" result="effect1_foregroundBlur_797_1698"/>
</filter>
<filter id="filter8_f_797_1698" x="18.4382" y="18.7195" width="6.56134" height="6.56122" filterUnits="userSpaceOnUse" color-interpolation-filters="sRGB">
<feFlood flood-opacity="0" result="BackgroundImageFix"/>
<feBlend mode="normal" in="SourceGraphic" in2="BackgroundImageFix" result="shape"/>
<feGaussianBlur stdDeviation="0.268814" result="effect1_foregroundBlur_797_1698"/>
</filter>
<filter id="filter9_f_797_1698" x="21.4714" y="3.0228" width="17.7354" height="13.1092" filterUnits="userSpaceOnUse" color-interpolation-filters="sRGB">
<feFlood flood-opacity="0" result="BackgroundImageFix"/>
<feBlend mode="normal" in="SourceGraphic" in2="BackgroundImageFix" result="shape"/>
<feGaussianBlur stdDeviation="0.413097" result="effect1_foregroundBlur_797_1698"/>
</filter>
<filter id="filter10_f_797_1698" x="26.9804" y="16.0832" width="14.4235" height="16.4596" filterUnits="userSpaceOnUse" color-interpolation-filters="sRGB">
<feFlood flood-opacity="0" result="BackgroundImageFix"/>
<feBlend mode="normal" in="SourceGraphic" in2="BackgroundImageFix" result="shape"/>
<feGaussianBlur stdDeviation="0.413615" result="effect1_foregroundBlur_797_1698"/>
</filter>
<filter id="filter11_f_797_1698" x="20.6538" y="24.985" width="15.3418" height="17.0239" filterUnits="userSpaceOnUse" color-interpolation-filters="sRGB">
<feFlood flood-opacity="0" result="BackgroundImageFix"/>
<feBlend mode="normal" in="SourceGraphic" in2="BackgroundImageFix" result="shape"/>
<feGaussianBlur stdDeviation="0.433469" result="effect1_foregroundBlur_797_1698"/>
</filter>
<filter id="filter12_f_797_1698" x="4.21458" y="27.8674" width="17.7525" height="13.1101" filterUnits="userSpaceOnUse" color-interpolation-filters="sRGB">
<feFlood flood-opacity="0" result="BackgroundImageFix"/>
<feBlend mode="normal" in="SourceGraphic" in2="BackgroundImageFix" result="shape"/>
<feGaussianBlur stdDeviation="0.413339" result="effect1_foregroundBlur_797_1698"/>
</filter>
<filter id="filter13_f_797_1698" x="2.03264" y="11.4294" width="14.4311" height="16.4884" filterUnits="userSpaceOnUse" color-interpolation-filters="sRGB">
<feFlood flood-opacity="0" result="BackgroundImageFix"/>
<feBlend mode="normal" in="SourceGraphic" in2="BackgroundImageFix" result="shape"/>
<feGaussianBlur stdDeviation="0.4141" result="effect1_foregroundBlur_797_1698"/>
</filter>
<filter id="filter14_f_797_1698" x="7.43962" y="1.99089" width="15.3446" height="17.0241" filterUnits="userSpaceOnUse" color-interpolation-filters="sRGB">
<feFlood flood-opacity="0" result="BackgroundImageFix"/>
<feBlend mode="normal" in="SourceGraphic" in2="BackgroundImageFix" result="shape"/>
<feGaussianBlur stdDeviation="0.433509" result="effect1_foregroundBlur_797_1698"/>
</filter>
<filter id="filter15_f_797_1698" x="19.526" y="19.812" width="4.37972" height="4.3619" filterUnits="userSpaceOnUse" color-interpolation-filters="sRGB">
<feFlood flood-opacity="0" result="BackgroundImageFix"/>
<feBlend mode="normal" in="SourceGraphic" in2="BackgroundImageFix" result="shape"/>
<feGaussianBlur stdDeviation="0.150717" result="effect1_foregroundBlur_797_1698"/>
</filter>
<linearGradient id="paint0_linear_797_1698" x1="31.8968" y1="5.16671" x2="27.2198" y2="16.5673" gradientUnits="userSpaceOnUse">
<stop stop-color="#FF7004"/>
<stop offset="1" stop-color="#BA4704"/>
</linearGradient>
<linearGradient id="paint1_linear_797_1698" x1="34.0624" y1="17.1999" x2="38.1769" y2="32.2864" gradientUnits="userSpaceOnUse">
<stop stop-color="#F7F10E"/>
<stop offset="1" stop-color="#C58907"/>
</linearGradient>
<linearGradient id="paint2_linear_797_1698" x1="26.5191" y1="24.7431" x2="28.5763" y2="40.5153" gradientUnits="userSpaceOnUse">
<stop stop-color="#17B414"/>
<stop offset="1" stop-color="#176314"/>
</linearGradient>
<linearGradient id="paint3_linear_797_1698" x1="15.547" y1="29.5433" x2="14.1755" y2="39.8295" gradientUnits="userSpaceOnUse">
<stop stop-color="#1476E6"/>
<stop offset="1" stop-color="#143E9A"/>
</linearGradient>
<linearGradient id="paint4_linear_797_1698" x1="5.94664" y1="11.0281" x2="10.0611" y2="26.8003" gradientUnits="userSpaceOnUse">
<stop stop-color="#D000D0"/>
<stop offset="1" stop-color="#760076"/>
</linearGradient>
<linearGradient id="paint5_linear_797_1698" x1="18.9759" y1="2.799" x2="16.2329" y2="17.8855" gradientUnits="userSpaceOnUse">
<stop stop-color="#D70016"/>
<stop offset="1" stop-color="#8D0016"/>
</linearGradient>
<linearGradient id="paint6_linear_797_1698" x1="21.7188" y1="19.2571" x2="21.7188" y2="24.7431" gradientUnits="userSpaceOnUse">
<stop stop-color="white"/>
<stop offset="1" stop-color="#B0B0B0"/>
</linearGradient>
</defs>
</svg>
