<svg width="1920" height="1920" viewBox="0 0 1920 1920" fill="none" xmlns="http://www.w3.org/2000/svg">
<mask id="mask0_705_648" style="mask-type:alpha" maskUnits="userSpaceOnUse" x="0" y="0" width="1920" height="1920">
<path fill-rule="evenodd" clip-rule="evenodd" d="M1692.9 213.333C1517.42 34.4086 1252.47 0 956.559 0C660.645 0 399.14 34.4086 220.215 213.333C82.5807 354.409 0 584.946 0 960C0 1335.05 86.0215 1565.59 223.656 1706.67C399.14 1885.59 664.086 1920 960 1920C1255.91 1920 1517.42 1885.59 1696.34 1706.67C1837.42 1565.59 1920 1335.05 1920 960C1920 584.946 1833.98 354.409 1696.34 213.333H1692.9Z" fill="#D9D9D9"/>
</mask>
<g mask="url(#mask0_705_648)">
<g clip-path="url(#clip0_705_648)">
<rect width="1920" height="1920" fill="#073042"/>
<rect x="-960" y="-960" width="3840" height="3840" fill="url(#paint0_linear_705_648)"/>
<path fill-rule="evenodd" clip-rule="evenodd" d="M1472.59 1440C1512.18 1440 1544.28 1472.1 1544.28 1511.69C1544.26 1522.99 1541.57 1534.13 1536.42 1544.19L1398.73 1781.13L1397.96 1781.03C1439.46 1806.8 1478.85 1836.34 1515.61 1869.43C1668.18 2006.81 1764.48 2195.82 1785.95 2400H134C155.453 2195.91 251.676 2006.98 404.131 1869.62C440.902 1836.49 480.318 1806.92 521.842 1781.12L521.821 1781.13L384.126 1544.19C378.983 1534.13 376.289 1522.99 376.269 1511.69C376.269 1472.1 408.365 1440 447.957 1440C471.349 1440 493.271 1451.4 506.69 1470.56L653.879 1714.58C750.417 1676.28 854.088 1656.1 959.697 1656.02C1065.78 1656.03 1169.93 1676.33 1266.86 1714.9L1266.67 1714.59L1413.86 1470.56C1427.28 1451.4 1449.2 1440 1472.59 1440ZM596.408 2015.09C552.638 2015.09 509.037 2053.72 499.023 2101.37C489.009 2149.02 516.374 2187.65 560.143 2187.65C603.913 2187.65 647.513 2149.02 657.527 2101.37C667.541 2053.72 640.177 2015.09 596.408 2015.09ZM1330.36 2015.09C1286.59 2015.09 1258.03 2053.72 1266.57 2101.37C1275.1 2149.02 1317.51 2187.65 1361.28 2187.65C1405.04 2187.65 1433.61 2149.02 1425.07 2101.37C1416.53 2053.72 1374.13 2015.09 1330.36 2015.09Z" fill="#073042"/>
<path d="M447.957 1445H447.958C469.665 1445 490.012 1455.56 502.503 1473.3L649.598 1717.17L651.785 1720.79L655.723 1719.23C751.679 1681.16 854.726 1661.1 959.698 1661.02C1065.15 1661.03 1168.66 1681.21 1265.01 1719.55L1279.01 1725.12L1272.52 1714.56L1418.04 1473.3C1430.54 1455.56 1450.88 1445 1472.59 1445H1472.59C1509.42 1445 1539.28 1474.86 1539.28 1511.69C1539.26 1522.16 1536.77 1532.48 1532.02 1541.81L1394.41 1778.61L1397.11 1780.18L1395.32 1785.28C1436.57 1810.9 1475.73 1840.25 1512.26 1873.15C1662.54 2008.46 1757.9 2194.16 1780.37 2395H139.574C162.04 2194.26 257.316 2008.63 407.478 1873.33C444.028 1840.4 483.207 1811.01 524.48 1785.37L522.709 1780.61L526.144 1778.61L388.524 1541.81C383.776 1532.48 381.289 1522.16 381.269 1511.69C381.269 1474.86 411.126 1445 447.957 1445ZM596.407 2010.09C549.912 2010.09 504.552 2050.75 494.13 2100.34C488.88 2125.33 493.354 2148.36 505.334 2165.27C517.357 2182.24 536.681 2192.65 560.144 2192.65C606.639 2192.65 651.998 2151.99 662.42 2102.4C667.67 2077.42 663.195 2054.38 651.216 2037.47C639.193 2020.5 619.87 2010.09 596.407 2010.09ZM1330.36 2010.09C1306.9 2010.09 1287.32 2020.49 1274.83 2037.39C1262.37 2054.24 1257.16 2077.25 1261.64 2102.25C1270.54 2151.92 1314.73 2192.65 1361.28 2192.65C1384.73 2192.65 1404.31 2182.25 1416.81 2165.35C1429.27 2148.5 1434.47 2125.5 1429.99 2100.49C1421.09 2050.83 1376.91 2010.09 1330.36 2010.09Z" stroke="white" stroke-opacity="0.05" stroke-width="10"/>
<mask id="path-5-outside-1_705_648" maskUnits="userSpaceOnUse" x="112" y="697" width="1632" height="503" fill="black">
<rect fill="white" x="112" y="697" width="1632" height="503"/>
<path d="M176 697H1744V1200H176V697Z"/>
</mask>
<path d="M176 1200H240V697H176H112V1200H176Z" fill="#89B4F3" mask="url(#path-5-outside-1_705_648)"/>
<path d="M249.35 1024L337.24 778.18H389.77L477.66 1024H428.19L408.13 967.05H319.56L299.16 1024H249.35ZM330.78 923.7H396.06L363.59 825.95L330.78 923.7ZM508.281 1024V848.22H557.071V873.04C559.791 868.733 563.305 864.597 567.611 860.63C572.031 856.55 577.585 853.207 584.271 850.6C590.958 847.993 598.891 846.69 608.071 846.69C618.838 846.69 628.868 848.787 638.161 852.98C647.568 857.173 655.161 863.803 660.941 872.87C666.721 881.823 669.611 893.553 669.611 908.06V1024H619.971V914.18C619.971 904.66 617.138 897.52 611.471 892.76C605.805 888 598.891 885.62 590.731 885.62C585.291 885.62 580.021 886.583 574.921 888.51C569.935 890.437 565.855 893.327 562.681 897.18C559.508 901.033 557.921 905.793 557.921 911.46V1024H508.281ZM716.114 1024V778.18C717.361 778.18 720.818 778.18 726.484 778.18C732.264 778.18 739.008 778.18 746.714 778.18C754.534 778.18 762.298 778.237 770.004 778.35C777.824 778.35 784.341 778.407 789.554 778.52C819.361 779.2 843.671 784.527 862.484 794.5C881.298 804.473 895.068 818.413 903.794 836.32C912.634 854.227 917.054 875.42 917.054 899.9C917.054 925.4 912.408 947.443 903.114 966.03C893.821 984.503 879.598 998.783 860.444 1008.87C841.404 1018.96 817.208 1024 787.854 1024H716.114ZM766.094 983.88H788.874C802.928 983.88 815.678 981.16 827.124 975.72C838.684 970.28 847.921 961.383 854.834 949.03C861.748 936.677 865.204 920.187 865.204 899.56C865.204 880.407 862.144 864.88 856.024 852.98C849.904 840.967 841.178 832.183 829.844 826.63C818.511 821.077 805.081 818.3 789.554 818.3H766.094V983.88ZM955.041 1024V848.22H1002.47V1024H955.041ZM954.531 823.06V778.35H1002.81V823.06H954.531ZM1115.9 1027.4C1103.66 1027.4 1091.87 1025.42 1080.54 1021.45C1069.32 1017.37 1059.74 1011.02 1051.81 1002.41C1043.99 993.683 1039.06 982.407 1037.02 968.58H1079.86C1081.44 974.813 1084.16 979.743 1088.02 983.37C1091.98 986.997 1096.46 989.603 1101.45 991.19C1106.43 992.663 1111.19 993.4 1115.73 993.4C1125.25 993.4 1132.9 991.927 1138.68 988.98C1144.57 985.92 1147.52 981.273 1147.52 975.04C1147.52 970.28 1145.76 966.483 1142.25 963.65C1138.85 960.817 1133.18 958.663 1125.25 957.19L1094.31 950.73C1078.78 947.443 1066.26 941.89 1056.74 934.07C1047.33 926.137 1042.57 914.917 1042.46 900.41C1042.34 889.87 1045.06 880.407 1050.62 872.02C1056.28 863.633 1064.61 857.003 1075.61 852.13C1086.71 847.257 1100.26 844.82 1116.24 844.82C1137.88 844.82 1155.17 849.58 1168.09 859.1C1181.12 868.62 1187.75 882.05 1187.98 899.39H1146.5C1145.25 892.59 1141.85 887.377 1136.3 883.75C1130.86 880.01 1123.94 878.14 1115.56 878.14C1107.06 878.14 1100.03 879.67 1094.48 882.73C1088.92 885.79 1086.15 890.437 1086.15 896.67C1086.15 901.317 1088.41 905 1092.95 907.72C1097.48 910.327 1104.51 912.593 1114.03 914.52L1142.59 920.98C1152.45 923.36 1160.44 926.647 1166.56 930.84C1172.79 934.92 1177.61 939.397 1181.01 944.27C1184.41 949.143 1186.73 954.073 1187.98 959.06C1189.34 963.933 1190.02 968.353 1190.02 972.32C1190.02 983.993 1186.9 993.967 1180.67 1002.24C1174.43 1010.4 1165.76 1016.63 1154.66 1020.94C1143.55 1025.25 1130.63 1027.4 1115.9 1027.4ZM1299.63 1025.87C1284.1 1025.87 1272.09 1023.89 1263.59 1019.92C1255.2 1015.95 1249.37 1010.4 1246.08 1003.26C1242.91 996.12 1241.32 987.847 1241.32 978.44V882.73H1212.76V848.22H1242.85L1255.43 795.18H1290.79V848.05H1329.89V882.73H1290.79L1291.13 976.4C1291.13 980.707 1291.64 983.937 1292.66 986.09C1293.79 988.13 1295.49 989.49 1297.76 990.17C1300.14 990.737 1303.14 991.02 1306.77 991.02H1330.4V1021.62C1328.02 1022.64 1324.45 1023.6 1319.69 1024.51C1314.93 1025.42 1308.24 1025.87 1299.63 1025.87ZM1365.25 1024V848.22H1413.02V889.87C1415.86 880.917 1419.82 873.097 1424.92 866.41C1430.14 859.61 1436.43 854.34 1443.79 850.6C1451.16 846.747 1459.49 844.82 1468.78 844.82C1470.37 844.82 1471.84 844.933 1473.2 845.16C1474.68 845.273 1475.75 845.5 1476.43 845.84V893.1C1475.41 892.647 1474.17 892.363 1472.69 892.25C1471.33 892.137 1470.09 892.023 1468.95 891.91C1459.21 891.117 1450.88 891.4 1443.96 892.76C1437.05 894.12 1431.44 896.443 1427.13 899.73C1422.83 903.017 1419.71 907.04 1417.78 911.8C1415.86 916.56 1414.89 921.887 1414.89 927.78V1024H1365.25ZM1581.71 1027.4C1564.48 1027.4 1549.47 1023.72 1536.66 1016.35C1523.97 1008.98 1514.11 998.557 1507.08 985.07C1500.17 971.583 1496.71 955.603 1496.71 937.13C1496.71 918.657 1500.17 902.507 1507.08 888.68C1514.11 874.853 1523.97 864.087 1536.66 856.38C1549.47 848.673 1564.54 844.82 1581.88 844.82C1599.22 844.82 1614.24 848.617 1626.93 856.21C1639.62 863.69 1649.43 874.343 1656.34 888.17C1663.25 901.997 1666.71 918.317 1666.71 937.13C1666.71 954.81 1663.31 970.45 1656.51 984.05C1649.82 997.537 1640.13 1008.13 1627.44 1015.84C1614.86 1023.55 1599.62 1027.4 1581.71 1027.4ZM1581.88 990.51C1590.61 990.51 1597.63 987.96 1602.96 982.86C1608.29 977.76 1612.14 971.073 1614.52 962.8C1616.9 954.413 1618.09 945.29 1618.09 935.43C1618.09 926.137 1617.01 917.353 1614.86 909.08C1612.71 900.807 1608.97 894.12 1603.64 889.02C1598.31 883.92 1591.06 881.37 1581.88 881.37C1573.15 881.37 1566.07 883.807 1560.63 888.68C1555.3 893.44 1551.39 899.957 1548.9 908.23C1546.41 916.39 1545.16 925.457 1545.16 935.43C1545.16 944.61 1546.29 953.45 1548.56 961.95C1550.83 970.337 1554.62 977.193 1559.95 982.52C1565.28 987.847 1572.59 990.51 1581.88 990.51Z" fill="#89B4F3"/>
<path d="M244.822 1183V1126.84H259.364C261.962 1126.84 264.392 1127.16 266.655 1127.8C268.918 1128.42 270.975 1129.3 272.827 1130.46C274.447 1131.41 275.887 1132.58 277.147 1133.97C278.433 1135.34 279.551 1136.83 280.503 1138.45C281.609 1140.43 282.457 1142.61 283.049 1145C283.666 1147.4 283.975 1149.94 283.975 1152.64V1157.27C283.975 1159.87 283.692 1162.32 283.126 1164.64C282.56 1166.95 281.763 1169.07 280.734 1171C279.757 1172.73 278.613 1174.32 277.301 1175.79C275.99 1177.23 274.55 1178.44 272.981 1179.41C271.155 1180.57 269.136 1181.46 266.925 1182.07C264.739 1182.69 262.399 1183 259.904 1183H244.822ZM255.738 1135.63V1174.28H259.904C261.242 1174.28 262.489 1174.12 263.646 1173.78C264.803 1173.45 265.858 1172.96 266.809 1172.31C267.786 1171.65 268.661 1170.8 269.432 1169.77C270.229 1168.71 270.911 1167.49 271.477 1166.1C271.939 1164.9 272.287 1163.56 272.518 1162.09C272.775 1160.6 272.904 1158.99 272.904 1157.27V1152.56C272.904 1150.94 272.775 1149.41 272.518 1147.97C272.287 1146.51 271.939 1145.17 271.477 1143.96C270.911 1142.52 270.165 1141.24 269.239 1140.11C268.339 1138.97 267.285 1138.05 266.076 1137.33C265.15 1136.79 264.122 1136.38 262.99 1136.09C261.884 1135.79 260.676 1135.63 259.364 1135.63H255.738ZM295.74 1141.26H318.46V1174.28H329.762V1183H295.74V1174.28H307.621V1150.02H295.74V1141.26ZM306.849 1130.58C306.849 1129.75 306.991 1129 307.273 1128.3C307.582 1127.58 308.006 1126.96 308.546 1126.45C309.086 1125.96 309.729 1125.58 310.475 1125.29C311.247 1125.01 312.095 1124.87 313.021 1124.87C314.924 1124.87 316.428 1125.41 317.534 1126.49C318.666 1127.54 319.231 1128.91 319.231 1130.58C319.231 1132.25 318.666 1133.62 317.534 1134.71C316.428 1135.76 314.924 1136.29 313.021 1136.29C312.095 1136.29 311.247 1136.15 310.475 1135.86C309.729 1135.58 309.086 1135.18 308.546 1134.67C308.006 1134.18 307.582 1133.59 307.273 1132.89C306.991 1132.17 306.849 1131.4 306.849 1130.58ZM367.256 1171.54C367.256 1170.9 367.102 1170.33 366.793 1169.85C366.511 1169.36 365.996 1168.89 365.25 1168.46C364.479 1168.05 363.463 1167.66 362.203 1167.3C360.943 1166.94 359.349 1166.58 357.42 1166.22C354.977 1165.73 352.74 1165.13 350.708 1164.41C348.702 1163.66 346.979 1162.76 345.539 1161.71C344.099 1160.68 342.967 1159.48 342.145 1158.12C341.347 1156.76 340.949 1155.19 340.949 1153.41C340.949 1151.69 341.36 1150.04 342.183 1148.48C343.006 1146.91 344.189 1145.53 345.732 1144.35C347.275 1143.17 349.152 1142.23 351.364 1141.53C353.575 1140.84 356.07 1140.49 358.847 1140.49C361.753 1140.49 364.363 1140.84 366.678 1141.53C368.992 1142.2 370.959 1143.13 372.58 1144.31C374.174 1145.52 375.396 1146.95 376.244 1148.59C377.093 1150.24 377.517 1152.02 377.517 1153.95H366.793C366.793 1153.26 366.678 1152.62 366.446 1152.02C366.215 1151.41 365.868 1150.85 365.405 1150.37C364.762 1149.72 363.888 1149.21 362.782 1148.82C361.702 1148.44 360.39 1148.24 358.847 1148.24C357.536 1148.24 356.391 1148.37 355.414 1148.63C354.437 1148.89 353.64 1149.25 353.022 1149.71C352.457 1150.12 352.02 1150.61 351.711 1151.18C351.428 1151.72 351.287 1152.29 351.287 1152.91C351.287 1153.53 351.415 1154.11 351.672 1154.65C351.93 1155.16 352.392 1155.63 353.061 1156.04C353.704 1156.47 354.591 1156.87 355.723 1157.23C356.854 1157.57 358.294 1157.86 360.043 1158.12C362.563 1158.53 364.903 1159.06 367.063 1159.7C369.224 1160.34 371.088 1161.17 372.657 1162.17C374.225 1163.2 375.447 1164.45 376.321 1165.91C377.221 1167.35 377.671 1169.07 377.671 1171.08C377.671 1172.93 377.221 1174.64 376.321 1176.21C375.447 1177.75 374.2 1179.09 372.58 1180.22C370.934 1181.35 368.954 1182.24 366.639 1182.88C364.325 1183.5 361.74 1183.81 358.886 1183.81C355.748 1183.81 352.971 1183.4 350.554 1182.58C348.162 1181.75 346.156 1180.67 344.536 1179.34C342.916 1178.02 341.682 1176.53 340.833 1174.86C340.01 1173.16 339.599 1171.47 339.599 1169.77H349.821C349.898 1170.9 350.207 1171.88 350.747 1172.7C351.287 1173.5 351.981 1174.14 352.83 1174.63C353.678 1175.14 354.643 1175.52 355.723 1175.75C356.828 1175.98 357.96 1176.1 359.117 1176.1C360.506 1176.1 361.715 1175.98 362.743 1175.75C363.798 1175.49 364.659 1175.16 365.328 1174.75C365.971 1174.33 366.446 1173.86 366.755 1173.32C367.089 1172.78 367.256 1172.19 367.256 1171.54ZM407.451 1131.04V1141.26H423.035V1149.17H407.451V1167.11C407.451 1168.62 407.618 1169.9 407.952 1170.93C408.312 1171.93 408.814 1172.73 409.457 1173.32C410.099 1173.94 410.871 1174.37 411.771 1174.63C412.697 1174.89 413.725 1175.02 414.857 1175.02C415.68 1175.02 416.516 1174.98 417.364 1174.9C418.239 1174.82 419.074 1174.72 419.872 1174.59C420.643 1174.49 421.363 1174.37 422.032 1174.24C422.726 1174.12 423.318 1173.99 423.806 1173.86L424.848 1181.23C424.102 1181.66 423.228 1182.05 422.225 1182.38C421.222 1182.69 420.154 1182.95 419.023 1183.15C417.891 1183.36 416.708 1183.51 415.474 1183.62C414.265 1183.75 413.07 1183.81 411.887 1183.81C409.598 1183.81 407.515 1183.51 405.638 1182.92C403.786 1182.31 402.205 1181.35 400.893 1180.07C399.556 1178.81 398.527 1177.2 397.807 1175.25C397.087 1173.27 396.727 1170.9 396.727 1168.15V1149.17H387.199V1141.26H396.727V1131.04H407.451ZM465.196 1140.49C466.816 1140.49 468.308 1140.61 469.671 1140.84C471.06 1141.04 472.178 1141.28 473.027 1141.53L471.445 1152.22C470.031 1151.88 468.578 1151.64 467.086 1151.48C465.621 1151.3 464.219 1151.21 462.882 1151.21C461.493 1151.21 460.233 1151.34 459.102 1151.6C457.996 1151.83 457.006 1152.19 456.131 1152.68C455.077 1153.25 454.177 1153.97 453.431 1154.84C452.685 1155.72 452.068 1156.74 451.58 1157.93V1183H440.856V1141.26H450.847L451.271 1147.16L451.348 1148.09C453.045 1145.72 455.077 1143.87 457.443 1142.54C459.809 1141.17 462.393 1140.49 465.196 1140.49ZM485.525 1141.26H508.245V1174.28H519.547V1183H485.525V1174.28H497.406V1150.02H485.525V1141.26ZM496.634 1130.58C496.634 1129.75 496.776 1129 497.059 1128.3C497.367 1127.58 497.792 1126.96 498.332 1126.45C498.872 1125.96 499.514 1125.58 500.26 1125.29C501.032 1125.01 501.88 1124.87 502.806 1124.87C504.709 1124.87 506.214 1125.41 507.319 1126.49C508.451 1127.54 509.017 1128.91 509.017 1130.58C509.017 1132.25 508.451 1133.62 507.319 1134.71C506.214 1135.76 504.709 1136.29 502.806 1136.29C501.88 1136.29 501.032 1136.15 500.26 1135.86C499.514 1135.58 498.872 1135.18 498.332 1134.67C497.792 1134.18 497.367 1133.59 497.059 1132.89C496.776 1132.17 496.634 1131.4 496.634 1130.58ZM567.727 1162.56C567.727 1164.56 567.585 1166.46 567.302 1168.26C567.019 1170.04 566.608 1171.68 566.068 1173.2C565.476 1174.87 564.692 1176.39 563.715 1177.75C562.763 1179.12 561.632 1180.25 560.32 1181.15C559.137 1182 557.8 1182.64 556.309 1183.08C554.843 1183.54 553.223 1183.77 551.448 1183.77C549.828 1183.77 548.349 1183.57 547.012 1183.15C545.701 1182.77 544.518 1182.19 543.463 1181.42C542.898 1181.03 542.37 1180.61 541.882 1180.15C541.393 1179.66 540.93 1179.13 540.493 1178.56L539.992 1183H530.348V1123.75H541.072V1145.04C541.586 1144.45 542.139 1143.91 542.73 1143.42C543.322 1142.91 543.952 1142.47 544.621 1142.11C545.572 1141.57 546.601 1141.17 547.707 1140.92C548.838 1140.63 550.06 1140.49 551.371 1140.49C553.171 1140.49 554.817 1140.72 556.309 1141.19C557.826 1141.65 559.176 1142.32 560.359 1143.19C561.31 1143.86 562.172 1144.67 562.943 1145.62C563.715 1146.55 564.396 1147.56 564.988 1148.67C565.914 1150.44 566.595 1152.44 567.032 1154.65C567.495 1156.86 567.727 1159.23 567.727 1161.75V1162.56ZM557.003 1161.75C557.003 1160.64 556.951 1159.57 556.849 1158.54C556.746 1157.52 556.579 1156.55 556.347 1155.65C556.064 1154.6 555.691 1153.66 555.229 1152.83C554.791 1151.99 554.123 1151.21 553.223 1150.52C552.631 1150.08 551.963 1149.76 551.217 1149.56C550.471 1149.32 549.622 1149.21 548.671 1149.21C547.385 1149.21 546.254 1149.39 545.276 1149.75C544.299 1150.11 543.463 1150.64 542.769 1151.33C542.435 1151.66 542.126 1152.05 541.843 1152.49C541.56 1152.9 541.303 1153.35 541.072 1153.84V1170.46C541.38 1171.11 541.728 1171.7 542.113 1172.24C542.525 1172.75 543 1173.2 543.541 1173.59C544.183 1174.08 544.929 1174.45 545.778 1174.71C546.652 1174.96 547.642 1175.09 548.748 1175.09C549.7 1175.09 550.561 1174.98 551.333 1174.75C552.104 1174.51 552.773 1174.19 553.338 1173.78C554.136 1173.22 554.778 1172.48 555.267 1171.58C555.781 1170.66 556.167 1169.61 556.424 1168.46C556.63 1167.61 556.771 1166.68 556.849 1165.68C556.951 1164.68 557.003 1163.64 557.003 1162.56V1161.75ZM604.796 1183L604.179 1177.14C602.765 1179.22 601.055 1180.85 599.049 1182.04C597.069 1183.22 594.896 1183.81 592.53 1183.81C590.37 1183.81 588.389 1183.48 586.589 1182.81C584.789 1182.14 583.246 1181.07 581.96 1179.61C580.675 1178.17 579.672 1176.33 578.952 1174.09C578.257 1171.83 577.91 1169.11 577.91 1165.95V1141.26H588.634V1166.03C588.634 1167.72 588.75 1169.15 588.981 1170.31C589.238 1171.47 589.637 1172.39 590.177 1173.09C590.717 1173.81 591.424 1174.32 592.298 1174.63C593.173 1174.94 594.24 1175.09 595.5 1175.09C596.632 1175.09 597.647 1174.98 598.547 1174.75C599.473 1174.51 600.283 1174.18 600.978 1173.74C601.569 1173.36 602.096 1172.89 602.559 1172.35C603.022 1171.81 603.421 1171.21 603.755 1170.54V1141.26H614.517V1183H604.796ZM627.864 1141.26H650.584V1174.28H661.886V1183H627.864V1174.28H639.745V1150.02H627.864V1141.26ZM638.973 1130.58C638.973 1129.75 639.115 1129 639.397 1128.3C639.706 1127.58 640.13 1126.96 640.67 1126.45C641.21 1125.96 641.853 1125.58 642.599 1125.29C643.371 1125.01 644.219 1124.87 645.145 1124.87C647.048 1124.87 648.552 1125.41 649.658 1126.49C650.79 1127.54 651.355 1128.91 651.355 1130.58C651.355 1132.25 650.79 1133.62 649.658 1134.71C648.552 1135.76 647.048 1136.29 645.145 1136.29C644.219 1136.29 643.371 1136.15 642.599 1135.86C641.853 1135.58 641.21 1135.18 640.67 1134.67C640.13 1134.18 639.706 1133.59 639.397 1132.89C639.115 1132.17 638.973 1131.4 638.973 1130.58ZM690.933 1175.21C691.987 1175.21 692.99 1175.05 693.941 1174.75C694.893 1174.44 695.729 1174 696.449 1173.43C697.169 1172.87 697.722 1172.19 698.107 1171.39C698.519 1170.59 698.699 1169.7 698.647 1168.73H708.754C708.805 1170.89 708.355 1172.89 707.404 1174.75C706.478 1176.6 705.205 1178.19 703.585 1179.53C701.965 1180.87 700.075 1181.92 697.915 1182.69C695.78 1183.44 693.517 1183.81 691.125 1183.81C687.885 1183.81 685.044 1183.27 682.601 1182.19C680.158 1181.08 678.126 1179.58 676.506 1177.68C674.86 1175.77 673.613 1173.55 672.764 1171C671.941 1168.43 671.53 1165.68 671.53 1162.75V1161.59C671.53 1158.66 671.941 1155.92 672.764 1153.38C673.587 1150.8 674.821 1148.57 676.467 1146.66C678.113 1144.76 680.145 1143.26 682.562 1142.15C685.005 1141.04 687.834 1140.49 691.048 1140.49C693.62 1140.49 695.999 1140.88 698.185 1141.65C700.37 1142.42 702.261 1143.5 703.855 1144.89C705.424 1146.3 706.645 1148.01 707.52 1150.02C708.394 1152 708.805 1154.22 708.754 1156.69H698.647C698.699 1155.66 698.545 1154.69 698.185 1153.76C697.825 1152.83 697.297 1152.04 696.603 1151.37C695.909 1150.7 695.073 1150.17 694.096 1149.79C693.118 1149.38 692.051 1149.17 690.894 1149.17C689.197 1149.17 687.795 1149.52 686.689 1150.21C685.584 1150.91 684.709 1151.83 684.066 1152.99C683.398 1154.15 682.922 1155.47 682.639 1156.96C682.382 1158.45 682.253 1160 682.253 1161.59V1162.75C682.253 1164.37 682.382 1165.94 682.639 1167.45C682.896 1168.95 683.359 1170.26 684.028 1171.39C684.671 1172.55 685.545 1173.47 686.651 1174.17C687.782 1174.86 689.21 1175.21 690.933 1175.21ZM695.06 1182.61L694.636 1184.77C695.356 1184.9 696.063 1185.11 696.757 1185.39C697.452 1185.7 698.069 1186.11 698.609 1186.63C699.149 1187.17 699.586 1187.82 699.92 1188.59C700.255 1189.39 700.422 1190.34 700.422 1191.45C700.422 1192.81 700.139 1194.05 699.573 1195.15C699.007 1196.26 698.172 1197.2 697.066 1197.97C695.934 1198.76 694.546 1199.38 692.9 1199.82C691.254 1200.26 689.338 1200.47 687.152 1200.47L686.882 1194.3C687.525 1194.3 688.117 1194.24 688.657 1194.11C689.222 1194.01 689.711 1193.84 690.123 1193.61C690.534 1193.35 690.855 1193.02 691.087 1192.6C691.344 1192.19 691.473 1191.69 691.473 1191.1C691.473 1190.59 691.37 1190.15 691.164 1189.79C690.958 1189.43 690.637 1189.13 690.2 1188.9C689.763 1188.64 689.184 1188.45 688.464 1188.32C687.744 1188.22 686.882 1188.13 685.879 1188.05L687.075 1182.61H695.06ZM718.436 1161.75C718.436 1158.71 718.873 1155.91 719.748 1153.34C720.622 1150.74 721.908 1148.49 723.605 1146.59C725.277 1144.68 727.321 1143.19 729.738 1142.11C732.181 1141.03 734.972 1140.49 738.109 1140.49C741.246 1140.49 744.036 1141.03 746.479 1142.11C748.923 1143.19 750.993 1144.68 752.69 1146.59C754.361 1148.49 755.634 1150.74 756.509 1153.34C757.383 1155.91 757.82 1158.71 757.82 1161.75V1162.56C757.82 1165.62 757.383 1168.44 756.509 1171.04C755.634 1173.61 754.361 1175.85 752.69 1177.75C751.018 1179.66 748.961 1181.15 746.518 1182.23C744.075 1183.28 741.298 1183.81 738.186 1183.81C735.049 1183.81 732.246 1183.28 729.777 1182.23C727.334 1181.15 725.277 1179.66 723.605 1177.75C721.908 1175.85 720.622 1173.61 719.748 1171.04C718.873 1168.44 718.436 1165.62 718.436 1162.56V1161.75ZM729.16 1162.56C729.16 1164.3 729.327 1165.95 729.661 1167.49C729.995 1169.01 730.523 1170.33 731.243 1171.47C731.963 1172.62 732.889 1173.54 734.02 1174.21C735.177 1174.87 736.566 1175.21 738.186 1175.21C739.755 1175.21 741.105 1174.87 742.236 1174.21C743.368 1173.54 744.294 1172.62 745.014 1171.47C745.708 1170.33 746.222 1169.01 746.557 1167.49C746.891 1165.95 747.058 1164.3 747.058 1162.56V1161.75C747.058 1160.05 746.891 1158.44 746.557 1156.92C746.222 1155.41 745.708 1154.07 745.014 1152.91C744.294 1151.75 743.368 1150.84 742.236 1150.17C741.105 1149.5 739.729 1149.17 738.109 1149.17C736.514 1149.17 735.152 1149.5 734.02 1150.17C732.889 1150.84 731.963 1151.75 731.243 1152.91C730.523 1154.07 729.995 1155.41 729.661 1156.92C729.327 1158.44 729.16 1160.05 729.16 1161.75V1162.56ZM752.42 1123.63C752.42 1124.79 752.214 1125.94 751.803 1127.07C751.417 1128.2 750.864 1129.2 750.144 1130.08C749.398 1130.98 748.511 1131.7 747.482 1132.24C746.479 1132.78 745.348 1133.05 744.088 1133.05C742.854 1133.05 741.773 1132.88 740.848 1132.54C739.948 1132.18 739.099 1131.79 738.302 1131.35C737.479 1130.94 736.669 1130.56 735.872 1130.23C735.074 1129.87 734.174 1129.69 733.171 1129.69C732.708 1129.69 732.271 1129.78 731.86 1129.96C731.448 1130.11 731.088 1130.36 730.78 1130.69C730.445 1131 730.188 1131.4 730.008 1131.89C729.828 1132.35 729.738 1132.88 729.738 1133.47L724.338 1132.31C724.338 1131.18 724.531 1130.05 724.917 1128.92C725.328 1127.79 725.894 1126.77 726.614 1125.87C727.334 1124.97 728.195 1124.24 729.198 1123.67C730.227 1123.11 731.371 1122.82 732.631 1122.82C733.66 1122.82 734.624 1123 735.524 1123.36C736.424 1123.7 737.312 1124.07 738.186 1124.48C739.035 1124.92 739.896 1125.32 740.771 1125.68C741.645 1126.01 742.571 1126.18 743.548 1126.18C744.036 1126.18 744.499 1126.09 744.937 1125.91C745.399 1125.7 745.785 1125.42 746.094 1125.06C746.377 1124.75 746.595 1124.38 746.75 1123.94C746.93 1123.48 747.02 1122.98 747.02 1122.44L752.42 1123.63ZM787.6 1183.77C784.385 1183.77 781.466 1183.24 778.843 1182.19C776.22 1181.14 773.97 1179.7 772.093 1177.87C770.215 1176.07 768.763 1173.95 767.734 1171.5C766.731 1169.04 766.229 1166.4 766.229 1163.6V1162.05C766.229 1158.87 766.731 1155.96 767.734 1153.34C768.737 1150.69 770.138 1148.41 771.938 1146.51C773.739 1144.61 775.873 1143.13 778.342 1142.07C780.811 1141.02 783.498 1140.49 786.404 1140.49C789.413 1140.49 792.087 1140.99 794.427 1142C796.793 1142.97 798.799 1144.36 800.445 1146.16C802.065 1147.96 803.299 1150.13 804.148 1152.68C804.997 1155.2 805.421 1157.99 805.421 1161.05V1165.6H777.107V1165.72C777.467 1167.39 777.93 1168.74 778.496 1169.77C779.062 1170.77 779.82 1171.68 780.772 1172.51C781.749 1173.36 782.868 1174.01 784.128 1174.48C785.388 1174.94 786.764 1175.17 788.255 1175.17C790.364 1175.17 792.409 1174.77 794.389 1173.97C796.369 1173.18 797.976 1171.98 799.21 1170.39L804.572 1176.17C803.209 1178.1 801.049 1179.85 798.092 1181.42C795.134 1182.99 791.637 1183.77 787.6 1183.77ZM786.327 1149.17C785.118 1149.17 784.012 1149.39 783.009 1149.83C782.006 1150.24 781.132 1150.84 780.386 1151.64C779.615 1152.44 778.972 1153.39 778.458 1154.49C777.943 1155.6 777.557 1156.83 777.3 1158.2H794.89V1157.35C794.89 1156.22 794.684 1155.15 794.273 1154.15C793.861 1153.14 793.296 1152.27 792.576 1151.52C791.856 1150.8 790.968 1150.24 789.914 1149.83C788.885 1149.39 787.69 1149.17 786.327 1149.17ZM841.719 1171.54C841.719 1170.9 841.565 1170.33 841.256 1169.85C840.973 1169.36 840.459 1168.89 839.713 1168.46C838.942 1168.05 837.926 1167.66 836.666 1167.3C835.406 1166.94 833.812 1166.58 831.883 1166.22C829.44 1165.73 827.202 1165.13 825.171 1164.41C823.165 1163.66 821.442 1162.76 820.002 1161.71C818.562 1160.68 817.43 1159.48 816.607 1158.12C815.81 1156.76 815.412 1155.19 815.412 1153.41C815.412 1151.69 815.823 1150.04 816.646 1148.48C817.469 1146.91 818.652 1145.53 820.195 1144.35C821.738 1143.17 823.615 1142.23 825.827 1141.53C828.038 1140.84 830.533 1140.49 833.31 1140.49C836.216 1140.49 838.826 1140.84 841.141 1141.53C843.455 1142.2 845.422 1143.13 847.042 1144.31C848.637 1145.52 849.858 1146.95 850.707 1148.59C851.556 1150.24 851.98 1152.02 851.98 1153.95H841.256C841.256 1153.26 841.141 1152.62 840.909 1152.02C840.678 1151.41 840.331 1150.85 839.868 1150.37C839.225 1149.72 838.35 1149.21 837.245 1148.82C836.165 1148.44 834.853 1148.24 833.31 1148.24C831.999 1148.24 830.854 1148.37 829.877 1148.63C828.9 1148.89 828.103 1149.25 827.485 1149.71C826.92 1150.12 826.482 1150.61 826.174 1151.18C825.891 1151.72 825.75 1152.29 825.75 1152.91C825.75 1153.53 825.878 1154.11 826.135 1154.65C826.392 1155.16 826.855 1155.63 827.524 1156.04C828.167 1156.47 829.054 1156.87 830.186 1157.23C831.317 1157.57 832.757 1157.86 834.506 1158.12C837.026 1158.53 839.366 1159.06 841.526 1159.7C843.687 1160.34 845.551 1161.17 847.12 1162.17C848.688 1163.2 849.91 1164.45 850.784 1165.91C851.684 1167.35 852.134 1169.07 852.134 1171.08C852.134 1172.93 851.684 1174.64 850.784 1176.21C849.91 1177.75 848.663 1179.09 847.042 1180.22C845.397 1181.35 843.417 1182.24 841.102 1182.88C838.788 1183.5 836.203 1183.81 833.349 1183.81C830.211 1183.81 827.434 1183.4 825.017 1182.58C822.625 1181.75 820.619 1180.67 818.999 1179.34C817.379 1178.02 816.145 1176.53 815.296 1174.86C814.473 1173.16 814.062 1171.47 814.062 1169.77H824.284C824.361 1170.9 824.669 1171.88 825.209 1172.7C825.75 1173.5 826.444 1174.14 827.292 1174.63C828.141 1175.14 829.105 1175.52 830.186 1175.75C831.291 1175.98 832.423 1176.1 833.58 1176.1C834.969 1176.1 836.177 1175.98 837.206 1175.75C838.26 1175.49 839.122 1175.16 839.791 1174.75C840.433 1174.33 840.909 1173.86 841.218 1173.32C841.552 1172.78 841.719 1172.19 841.719 1171.54ZM920.912 1174.24H947.22V1183H910.034V1126.84H920.912V1174.24ZM959.988 1141.26H982.708V1174.28H994.01V1183H959.988V1174.28H971.869V1150.02H959.988V1141.26ZM971.097 1130.58C971.097 1129.75 971.239 1129 971.521 1128.3C971.83 1127.58 972.254 1126.96 972.794 1126.45C973.334 1125.96 973.977 1125.58 974.723 1125.29C975.495 1125.01 976.343 1124.87 977.269 1124.87C979.172 1124.87 980.676 1125.41 981.782 1126.49C982.914 1127.54 983.479 1128.91 983.479 1130.58C983.479 1132.25 982.914 1133.62 981.782 1134.71C980.676 1135.76 979.172 1136.29 977.269 1136.29C976.343 1136.29 975.495 1136.15 974.723 1135.86C973.977 1135.58 973.334 1135.18 972.794 1134.67C972.254 1134.18 971.83 1133.59 971.521 1132.89C971.239 1132.17 971.097 1131.4 971.097 1130.58ZM1004.58 1183V1141.26H1014.3L1014.96 1147.05C1015.5 1146.28 1016.09 1145.57 1016.73 1144.93C1017.37 1144.28 1018.05 1143.71 1018.77 1143.19C1020.01 1142.32 1021.36 1141.65 1022.83 1141.19C1024.29 1140.72 1025.85 1140.49 1027.49 1140.49C1029.6 1140.49 1031.53 1140.8 1033.28 1141.42C1035.03 1142.03 1036.54 1143.01 1037.83 1144.35C1039.09 1145.71 1040.07 1147.46 1040.76 1149.59C1041.48 1151.7 1041.84 1154.28 1041.84 1157.31V1183H1031.12V1157.46C1031.12 1155.82 1030.93 1154.47 1030.54 1153.41C1030.18 1152.33 1029.65 1151.48 1028.96 1150.87C1028.26 1150.25 1027.43 1149.83 1026.45 1149.59C1025.47 1149.34 1024.37 1149.21 1023.13 1149.21C1022.11 1149.21 1021.15 1149.32 1020.28 1149.56C1019.43 1149.79 1018.67 1150.13 1018 1150.6C1017.46 1150.93 1016.97 1151.33 1016.54 1151.79C1016.1 1152.26 1015.7 1152.77 1015.34 1153.34V1183H1004.58ZM1079.26 1183L1078.64 1177.14C1077.23 1179.22 1075.52 1180.85 1073.51 1182.04C1071.53 1183.22 1069.36 1183.81 1066.99 1183.81C1064.83 1183.81 1062.85 1183.48 1061.05 1182.81C1059.25 1182.14 1057.71 1181.07 1056.42 1179.61C1055.14 1178.17 1054.13 1176.33 1053.41 1174.09C1052.72 1171.83 1052.37 1169.11 1052.37 1165.95V1141.26H1063.1V1166.03C1063.1 1167.72 1063.21 1169.15 1063.44 1170.31C1063.7 1171.47 1064.1 1172.39 1064.64 1173.09C1065.18 1173.81 1065.89 1174.32 1066.76 1174.63C1067.64 1174.94 1068.7 1175.09 1069.96 1175.09C1071.09 1175.09 1072.11 1174.98 1073.01 1174.75C1073.94 1174.51 1074.75 1174.18 1075.44 1173.74C1076.03 1173.36 1076.56 1172.89 1077.02 1172.35C1077.48 1171.81 1077.88 1171.21 1078.22 1170.54V1141.26H1088.98V1183H1079.26ZM1118.57 1154.3L1127.75 1141.26H1139.28L1125.28 1161.75L1139.78 1183H1128.21L1118.6 1169.34L1109.08 1183H1097.47L1111.97 1161.75L1098.01 1141.26H1109.54L1118.57 1154.3ZM1194.36 1183V1141.26H1204.09L1204.74 1147.05C1205.28 1146.28 1205.87 1145.57 1206.52 1144.93C1207.16 1144.28 1207.84 1143.71 1208.56 1143.19C1209.79 1142.32 1211.14 1141.65 1212.61 1141.19C1214.08 1140.72 1215.63 1140.49 1217.28 1140.49C1219.39 1140.49 1221.32 1140.8 1223.06 1141.42C1224.81 1142.03 1226.33 1143.01 1227.62 1144.35C1228.88 1145.71 1229.85 1147.46 1230.55 1149.59C1231.27 1151.7 1231.63 1154.28 1231.63 1157.31V1183H1220.9V1157.46C1220.9 1155.82 1220.71 1154.47 1220.33 1153.41C1219.97 1152.33 1219.44 1151.48 1218.74 1150.87C1218.05 1150.25 1217.21 1149.83 1216.24 1149.59C1215.26 1149.34 1214.15 1149.21 1212.92 1149.21C1211.89 1149.21 1210.94 1149.32 1210.06 1149.56C1209.22 1149.79 1208.46 1150.13 1207.79 1150.6C1207.25 1150.93 1206.76 1151.33 1206.32 1151.79C1205.89 1152.26 1205.49 1152.77 1205.13 1153.34V1183H1194.36ZM1240.35 1161.75C1240.35 1158.71 1240.78 1155.91 1241.66 1153.34C1242.53 1150.74 1243.82 1148.49 1245.51 1146.59C1247.19 1144.68 1249.23 1143.19 1251.65 1142.11C1254.09 1141.03 1256.88 1140.49 1260.02 1140.49C1263.16 1140.49 1265.95 1141.03 1268.39 1142.11C1270.83 1143.19 1272.9 1144.68 1274.6 1146.59C1276.27 1148.49 1277.54 1150.74 1278.42 1153.34C1279.29 1155.91 1279.73 1158.71 1279.73 1161.75V1162.56C1279.73 1165.62 1279.29 1168.44 1278.42 1171.04C1277.54 1173.61 1276.27 1175.85 1274.6 1177.75C1272.93 1179.66 1270.87 1181.15 1268.43 1182.23C1265.98 1183.28 1263.21 1183.81 1260.1 1183.81C1256.96 1183.81 1254.15 1183.28 1251.69 1182.23C1249.24 1181.15 1247.19 1179.66 1245.51 1177.75C1243.82 1175.85 1242.53 1173.61 1241.66 1171.04C1240.78 1168.44 1240.35 1165.62 1240.35 1162.56V1161.75ZM1251.07 1162.56C1251.07 1164.3 1251.24 1165.95 1251.57 1167.49C1251.9 1169.01 1252.43 1170.33 1253.15 1171.47C1253.87 1172.62 1254.8 1173.54 1255.93 1174.21C1257.09 1174.87 1258.48 1175.21 1260.1 1175.21C1261.66 1175.21 1263.01 1174.87 1264.15 1174.21C1265.28 1173.54 1266.2 1172.62 1266.92 1171.47C1267.62 1170.33 1268.13 1169.01 1268.47 1167.49C1268.8 1165.95 1268.97 1164.3 1268.97 1162.56V1161.75C1268.97 1160.05 1268.8 1158.44 1268.47 1156.92C1268.13 1155.41 1267.62 1154.07 1266.92 1152.91C1266.2 1151.75 1265.28 1150.84 1264.15 1150.17C1263.01 1149.5 1261.64 1149.17 1260.02 1149.17C1258.42 1149.17 1257.06 1149.5 1255.93 1150.17C1254.8 1150.84 1253.87 1151.75 1253.15 1152.91C1252.43 1154.07 1251.9 1155.41 1251.57 1156.92C1251.24 1158.44 1251.07 1160.05 1251.07 1161.75V1162.56ZM1363.94 1171.27H1347.08L1343.76 1183H1332.34L1350.74 1126.84H1360.58L1378.63 1183H1367.22L1363.94 1171.27ZM1349.74 1162.05H1361.39L1355.64 1141.38L1349.74 1162.05ZM1384.15 1183V1141.26H1393.87L1394.53 1147.05C1395.07 1146.28 1395.66 1145.57 1396.3 1144.93C1396.94 1144.28 1397.63 1143.71 1398.35 1143.19C1399.58 1142.32 1400.93 1141.65 1402.4 1141.19C1403.86 1140.72 1405.42 1140.49 1407.06 1140.49C1409.17 1140.49 1411.1 1140.8 1412.85 1141.42C1414.6 1142.03 1416.12 1143.01 1417.4 1144.35C1418.66 1145.71 1419.64 1147.46 1420.33 1149.59C1421.05 1151.7 1421.41 1154.28 1421.41 1157.31V1183H1410.69V1157.46C1410.69 1155.82 1410.5 1154.47 1410.11 1153.41C1409.75 1152.33 1409.22 1151.48 1408.53 1150.87C1407.83 1150.25 1407 1149.83 1406.02 1149.59C1405.04 1149.34 1403.94 1149.21 1402.7 1149.21C1401.68 1149.21 1400.72 1149.32 1399.85 1149.56C1399 1149.79 1398.24 1150.13 1397.57 1150.6C1397.03 1150.93 1396.55 1151.33 1396.11 1151.79C1395.67 1152.26 1395.27 1152.77 1394.91 1153.34V1183H1384.15ZM1430.48 1161.82C1430.48 1158.66 1430.84 1155.77 1431.56 1153.14C1432.3 1150.52 1433.38 1148.27 1434.8 1146.39C1436.21 1144.52 1437.92 1143.06 1439.93 1142.03C1441.96 1141.01 1444.27 1140.49 1446.87 1140.49C1449.06 1140.49 1450.97 1140.89 1452.62 1141.69C1454.29 1142.46 1455.77 1143.56 1457.06 1145V1123.75H1467.82V1183H1458.14L1457.6 1178.64C1456.28 1180.26 1454.74 1181.52 1452.97 1182.42C1451.19 1183.32 1449.13 1183.77 1446.79 1183.77C1444.25 1183.77 1441.96 1183.24 1439.93 1182.19C1437.92 1181.11 1436.23 1179.63 1434.84 1177.75C1433.42 1175.88 1432.34 1173.65 1431.6 1171.08C1430.85 1168.48 1430.48 1165.67 1430.48 1162.63V1161.82ZM1441.2 1162.63C1441.2 1164.38 1441.34 1166.01 1441.63 1167.53C1441.93 1169.02 1442.42 1170.32 1443.09 1171.43C1443.76 1172.56 1444.62 1173.45 1445.68 1174.09C1446.73 1174.73 1448.02 1175.05 1449.53 1175.05C1451.38 1175.05 1452.91 1174.66 1454.12 1173.86C1455.36 1173.06 1456.34 1171.97 1457.06 1170.58V1153.68C1456.34 1152.27 1455.37 1151.18 1454.16 1150.4C1452.95 1149.61 1451.44 1149.21 1449.61 1149.21C1448.09 1149.21 1446.79 1149.54 1445.71 1150.21C1444.66 1150.85 1443.8 1151.74 1443.13 1152.87C1442.46 1154.03 1441.97 1155.38 1441.66 1156.92C1441.36 1158.44 1441.2 1160.07 1441.2 1161.82V1162.63ZM1509.01 1140.49C1510.63 1140.49 1512.13 1140.61 1513.49 1140.84C1514.88 1141.04 1516 1141.28 1516.85 1141.53L1515.26 1152.22C1513.85 1151.88 1512.4 1151.64 1510.9 1151.48C1509.44 1151.3 1508.04 1151.21 1506.7 1151.21C1505.31 1151.21 1504.05 1151.34 1502.92 1151.6C1501.81 1151.83 1500.82 1152.19 1499.95 1152.68C1498.9 1153.25 1498 1153.97 1497.25 1154.84C1496.5 1155.72 1495.89 1156.74 1495.4 1157.93V1183H1484.67V1141.26H1494.67L1495.09 1147.16L1495.17 1148.09C1496.86 1145.72 1498.9 1143.87 1501.26 1142.54C1503.63 1141.17 1506.21 1140.49 1509.01 1140.49ZM1525.02 1161.75C1525.02 1158.71 1525.46 1155.91 1526.33 1153.34C1527.21 1150.74 1528.49 1148.49 1530.19 1146.59C1531.86 1144.68 1533.91 1143.19 1536.33 1142.11C1538.77 1141.03 1541.56 1140.49 1544.7 1140.49C1547.83 1140.49 1550.62 1141.03 1553.07 1142.11C1555.51 1143.19 1557.58 1144.68 1559.28 1146.59C1560.95 1148.49 1562.22 1150.74 1563.1 1153.34C1563.97 1155.91 1564.41 1158.71 1564.41 1161.75V1162.56C1564.41 1165.62 1563.97 1168.44 1563.1 1171.04C1562.22 1173.61 1560.95 1175.85 1559.28 1177.75C1557.61 1179.66 1555.55 1181.15 1553.1 1182.23C1550.66 1183.28 1547.88 1183.81 1544.77 1183.81C1541.64 1183.81 1538.83 1183.28 1536.36 1182.23C1533.92 1181.15 1531.86 1179.66 1530.19 1177.75C1528.49 1175.85 1527.21 1173.61 1526.33 1171.04C1525.46 1168.44 1525.02 1165.62 1525.02 1162.56V1161.75ZM1535.75 1162.56C1535.75 1164.3 1535.91 1165.95 1536.25 1167.49C1536.58 1169.01 1537.11 1170.33 1537.83 1171.47C1538.55 1172.62 1539.48 1173.54 1540.61 1174.21C1541.76 1174.87 1543.15 1175.21 1544.77 1175.21C1546.34 1175.21 1547.69 1174.87 1548.82 1174.21C1549.95 1173.54 1550.88 1172.62 1551.6 1171.47C1552.29 1170.33 1552.81 1169.01 1553.14 1167.49C1553.48 1165.95 1553.65 1164.3 1553.65 1162.56V1161.75C1553.65 1160.05 1553.48 1158.44 1553.14 1156.92C1552.81 1155.41 1552.29 1154.07 1551.6 1152.91C1550.88 1151.75 1549.95 1150.84 1548.82 1150.17C1547.69 1149.5 1546.32 1149.17 1544.7 1149.17C1543.1 1149.17 1541.74 1149.5 1540.61 1150.17C1539.48 1150.84 1538.55 1151.75 1537.83 1152.91C1537.11 1154.07 1536.58 1155.41 1536.25 1156.92C1535.91 1158.44 1535.75 1160.05 1535.75 1161.75V1162.56ZM1576.79 1141.26H1599.51V1174.28H1610.81V1183H1576.79V1174.28H1588.67V1150.02H1576.79V1141.26ZM1587.9 1130.58C1587.9 1129.75 1588.04 1129 1588.32 1128.3C1588.63 1127.58 1589.06 1126.96 1589.6 1126.45C1590.14 1125.96 1590.78 1125.58 1591.52 1125.29C1592.3 1125.01 1593.15 1124.87 1594.07 1124.87C1595.97 1124.87 1597.48 1125.41 1598.58 1126.49C1599.72 1127.54 1600.28 1128.91 1600.28 1130.58C1600.28 1132.25 1599.72 1133.62 1598.58 1134.71C1597.48 1135.76 1595.97 1136.29 1594.07 1136.29C1593.15 1136.29 1592.3 1136.15 1591.52 1135.86C1590.78 1135.58 1590.14 1135.18 1589.6 1134.67C1589.06 1134.18 1588.63 1133.59 1588.32 1132.89C1588.04 1132.17 1587.9 1131.4 1587.9 1130.58ZM1620.26 1161.82C1620.26 1158.66 1620.62 1155.77 1621.34 1153.14C1622.09 1150.52 1623.17 1148.27 1624.58 1146.39C1626 1144.52 1627.71 1143.06 1629.71 1142.03C1631.74 1141.01 1634.06 1140.49 1636.66 1140.49C1638.84 1140.49 1640.76 1140.89 1642.4 1141.69C1644.08 1142.46 1645.55 1143.56 1646.84 1145V1123.75H1657.6V1183H1647.92L1647.38 1178.64C1646.07 1180.26 1644.53 1181.52 1642.75 1182.42C1640.98 1183.32 1638.92 1183.77 1636.58 1183.77C1634.03 1183.77 1631.74 1183.24 1629.71 1182.19C1627.71 1181.11 1626.01 1179.63 1624.62 1177.75C1623.21 1175.88 1622.13 1173.65 1621.38 1171.08C1620.64 1168.48 1620.26 1165.67 1620.26 1162.63V1161.82ZM1630.99 1162.63C1630.99 1164.38 1631.13 1166.01 1631.41 1167.53C1631.72 1169.02 1632.21 1170.32 1632.88 1171.43C1633.55 1172.56 1634.41 1173.45 1635.46 1174.09C1636.52 1174.73 1637.8 1175.05 1639.32 1175.05C1641.17 1175.05 1642.7 1174.66 1643.91 1173.86C1645.14 1173.06 1646.12 1171.97 1646.84 1170.58V1153.68C1646.12 1152.27 1645.16 1151.18 1643.95 1150.4C1642.74 1149.61 1641.22 1149.21 1639.4 1149.21C1637.88 1149.21 1636.58 1149.54 1635.5 1150.21C1634.45 1150.85 1633.58 1151.74 1632.92 1152.87C1632.25 1154.03 1631.76 1155.38 1631.45 1156.92C1631.14 1158.44 1630.99 1160.07 1630.99 1161.82V1162.63Z" fill="#89B4F3"/>
</g>
</g>
<defs>
<linearGradient id="paint0_linear_705_648" x1="-960" y1="-960" x2="2880" y2="2880" gradientUnits="userSpaceOnUse">
<stop stop-color="#073042"/>
<stop offset="1"/>
</linearGradient>
<clipPath id="clip0_705_648">
<rect width="1920" height="1920" fill="white"/>
</clipPath>
</defs>
</svg>
