<svg width="40" height="40" viewBox="0 0 40 40" fill="none" xmlns="http://www.w3.org/2000/svg">
<g clip-path="url(#clip0_797_1634)">
<g opacity="0.783251">
<g filter="url(#filter0_f_797_1634)">
<path d="M16.9256 3.73435L4.12865 16.8419C-0.716807 21.6874 7.26578 21.2836 10.1544 23.1162C11.49 23.9859 5.86805 25.1041 7.01729 26.2533C8.13548 27.4026 13.7575 28.4586 14.8756 29.5768C15.9938 30.7261 12.6082 31.9374 13.7264 33.0867C14.8135 34.2359 17.4226 33.1488 17.8885 35.7579C18.2302 37.6836 22.6719 36.7208 24.6597 35.0745C25.9022 34.0185 22.5166 34.0185 23.6347 32.8692C26.4302 30.0427 28.915 31.5958 29.94 28.9867C30.4991 27.5889 25.7158 26.595 26.9893 25.6942C30.0332 23.551 41.2151 22.4639 36.059 17.3079L22.7961 3.73435C21.1499 2.18132 18.4476 2.18132 16.9256 3.73435ZM31.6173 28.9867C31.6173 29.6389 36.6802 30.0117 36.4007 28.8314C35.9969 26.8435 32.1764 26.9988 31.6173 28.9867ZM10.0302 32.4344C11.1794 33.4283 12.9188 32.217 13.4779 30.8192C12.3597 29.3594 8.22866 30.9124 10.0302 32.4344ZM30.9961 30.3533C29.5673 31.6579 31.2446 33.0245 32.6423 32.1238C33.015 31.8753 32.6113 30.6639 30.9961 30.3533Z" fill="black"/>
</g>
<g opacity="0.576355" filter="url(#filter1_f_797_1634)">
<path d="M16.9256 4.03758L4.12865 17.1452C-0.716807 21.9906 7.26578 21.5868 10.1544 23.4194C11.49 24.2891 5.86805 25.4073 7.01729 26.5565C8.13548 27.7058 13.7575 28.7618 14.8756 29.88C15.9938 31.0293 12.6082 32.2406 13.7264 33.3899C14.8135 34.5391 17.4226 33.452 17.8885 36.0611C18.2302 37.9869 22.6719 37.024 24.6597 35.3778C25.9022 34.3217 22.5166 34.3217 23.6347 33.1725C26.4302 30.3459 28.915 31.899 29.94 29.2899C30.4991 27.8921 25.7158 26.8982 26.9893 25.9974C30.0332 23.8543 41.2151 22.7671 36.059 17.6111L22.7961 4.03758C21.1499 2.48454 18.4476 2.48454 16.9256 4.03758ZM31.6173 29.2899C31.6173 29.9422 36.6802 30.3149 36.4007 29.1346C35.9969 27.1467 32.1764 27.302 31.6173 29.2899ZM10.0302 32.7376C11.1794 33.7316 12.9188 32.5202 13.4779 31.1225C12.3597 29.6626 8.22866 31.2156 10.0302 32.7376ZM30.9961 30.6565C29.5673 31.9611 31.2446 33.3278 32.6423 32.427C33.015 32.1785 32.6113 30.9672 30.9961 30.6565Z" fill="black"/>
</g>
</g>
<path d="M16.9256 3.43101L4.12865 16.5386C-0.716807 21.3841 7.26578 20.9803 10.1544 22.8129C11.49 23.6825 5.86805 24.8007 7.01729 25.95C8.13548 27.0992 13.7575 28.1553 14.8756 29.2735C15.9938 30.4227 12.6082 31.6341 13.7264 32.7833C14.8135 33.9326 17.4226 32.8454 17.8885 35.4545C18.2302 37.3803 22.6719 36.4174 24.6597 34.7712C25.9022 33.7151 22.5166 33.7151 23.6347 32.5659C26.4302 29.7394 28.915 31.2924 29.94 28.6833C30.4991 27.2856 25.7158 26.2916 26.9893 25.3909C30.0332 23.2477 41.2151 22.1606 36.059 17.0045L22.7961 3.43101C21.1499 1.87798 18.4476 1.87798 16.9256 3.43101ZM31.6173 28.6833C31.6173 29.3356 36.6802 29.7083 36.4007 28.528C35.9969 26.5401 32.1764 26.6954 31.6173 28.6833ZM10.0302 32.131C11.1794 33.125 12.9188 31.9136 13.4779 30.5159C12.3597 29.056 8.22866 30.6091 10.0302 32.131ZM30.9961 30.05C29.5673 31.3545 31.2446 32.7212 32.6423 31.8204C33.015 31.572 32.6113 30.3606 30.9961 30.05Z" fill="black"/>
<path opacity="0.505263" d="M5.26703 17.2653C1.78764 20.7133 7.90009 19.7416 12.602 21.591L22.3192 4.50748C20.8459 3.00288 18.9652 3.12826 17.6173 4.50748L5.26703 17.2653Z" fill="url(#paint0_linear_797_1634)"/>
<path d="M22.0193 4.36278L27.0822 9.51884C27.5481 9.98475 27.5481 10.9476 27.2686 11.2272L24.7527 9.17718L24.2557 12.1901L22.1746 11.0719L18.789 13.2151L17.6709 8.71127L15.8693 12.6249L11.3655 12.5938C10.4958 12.5938 10.6201 11.6931 11.5208 10.7923C13.2913 8.83551 16.739 5.51202 17.8262 4.36278C18.9443 3.21353 20.9012 3.24459 22.0193 4.36278Z" fill="url(#paint1_linear_797_1634)"/>
<path opacity="0.216749" fill-rule="evenodd" clip-rule="evenodd" d="M15.0705 28.7203C15.0705 28.7203 15.62 29.5595 15.564 29.9542C15.4541 30.7288 13.7858 31.1154 14.1554 31.8049C14.5206 32.4862 15.8369 32.1001 16.9418 32.8126C18.042 33.522 17.7462 34.9679 18.5458 35.3317C20.1053 36.0411 24.2009 34.1081 23.9953 34.1492C23.7896 34.1904 19.9532 34.9875 19.0895 34.2883C18.1048 33.4911 17.8224 32.9343 17.0961 32.463C16.4154 32.0213 15.4592 31.8411 15.2367 31.4794C15.0141 31.1178 15.6824 30.6512 15.7286 29.9542C15.7563 29.5356 15.0705 28.7203 15.0705 28.7203Z" fill="url(#paint2_radial_797_1634)"/>
<g opacity="0.275862" filter="url(#filter2_f_797_1634)">
<path fill-rule="evenodd" clip-rule="evenodd" d="M15.0705 28.7203C15.0705 28.7203 15.62 29.5595 15.564 29.9542C15.4541 30.7288 13.7858 31.1154 14.1554 31.8049C14.5206 32.4862 15.8369 32.1001 16.9418 32.8126C18.042 33.522 17.7462 34.9679 18.5458 35.3317C20.1053 36.0411 24.2009 34.1081 23.9953 34.1492C17.1944 34.1751 18.4636 32.4227 15.8417 31.2703C15.4628 31.1037 15.6824 30.6512 15.7286 29.9542C15.7563 29.5356 15.0705 28.7203 15.0705 28.7203Z" fill="url(#paint3_radial_797_1634)"/>
</g>
<path opacity="0.453202" fill-rule="evenodd" clip-rule="evenodd" d="M26.6278 25.1422C32.7318 22.8959 34.6928 22.5873 36.7041 20.577C34.3745 22.5435 29.4494 23.5984 25.4351 25.3479L26.6278 25.1422Z" fill="url(#paint4_radial_797_1634)"/>
<g opacity="0.512315" filter="url(#filter3_f_797_1634)">
<path fill-rule="evenodd" clip-rule="evenodd" d="M26.6278 24.8543C36.6801 21.2918 34.9807 21.3122 36.7041 20.2891C33.5081 21.5125 27.5351 21.643 25.4351 25.0599L26.6278 24.8543Z" fill="url(#paint5_radial_797_1634)"/>
</g>
<path opacity="0.285714" d="M35.4085 27.7024C35.4085 27.8087 35.2709 27.9107 35.026 27.9859C34.7812 28.0611 34.449 28.1034 34.1027 28.1034C33.7564 28.1034 33.4242 28.0611 33.1793 27.9859C32.9345 27.9107 32.7969 27.8087 32.7969 27.7024C32.7969 27.596 32.9345 27.494 33.1793 27.4188C33.4242 27.3436 33.7564 27.3014 34.1027 27.3014C34.449 27.3014 34.7812 27.3436 35.026 27.4188C35.2709 27.494 35.4085 27.596 35.4085 27.7024Z" fill="url(#paint6_linear_797_1634)"/>
<g opacity="0.620689" filter="url(#filter4_f_797_1634)">
<path d="M35.8607 28.1651C35.8607 28.3941 35.6754 28.6138 35.3457 28.7758C35.016 28.9378 34.5688 29.0288 34.1025 29.0288C33.6362 29.0288 33.1889 28.9378 32.8592 28.7758C32.5295 28.6138 32.3442 28.3941 32.3442 28.1651C32.3442 27.936 32.5295 27.7163 32.8592 27.5544C33.1889 27.3924 33.6362 27.3014 34.1025 27.3014C34.5688 27.3014 35.016 27.3924 35.3457 27.5544C35.6754 27.7163 35.8607 27.936 35.8607 28.1651Z" fill="url(#paint7_linear_797_1634)"/>
</g>
<g filter="url(#filter5_f_797_1634)">
<path fill-rule="evenodd" clip-rule="evenodd" d="M31.7068 28.6451C32.3269 29.2183 35.7794 29.5124 36.344 28.4806C35.2357 29.2676 32.7713 28.991 31.7068 28.6451Z" fill="url(#paint8_radial_797_1634)"/>
</g>
<path opacity="0.285714" d="M31.7192 30.5583C31.7493 30.6177 31.7685 30.6819 31.7757 30.7474C31.7828 30.8128 31.7777 30.8781 31.7607 30.9396C31.7436 31.0011 31.715 31.0575 31.6764 31.1057C31.6378 31.1539 31.59 31.1928 31.5358 31.2203C31.4815 31.2478 31.4219 31.2634 31.3602 31.266C31.2985 31.2687 31.2361 31.2584 31.1764 31.2358C31.1168 31.2132 31.061 31.1787 31.0125 31.1343C30.9639 31.0899 30.9234 31.0364 30.8933 30.977C30.8632 30.9176 30.844 30.8533 30.8368 30.7879C30.8297 30.7225 30.8348 30.6572 30.8518 30.5957C30.8689 30.5342 30.8975 30.4777 30.9361 30.4296C30.9747 30.3814 31.0225 30.3424 31.0767 30.3149C31.131 30.2874 31.1907 30.2719 31.2523 30.2692C31.314 30.2666 31.3764 30.2768 31.4361 30.2994C31.4958 30.322 31.5515 30.3565 31.6 30.4009C31.6486 30.4454 31.6891 30.4988 31.7192 30.5583Z" fill="url(#paint9_linear_797_1634)"/>
<g opacity="0.620689" filter="url(#filter6_f_797_1634)">
<path d="M31.9641 30.6691C32.0092 30.7579 32.0382 30.8538 32.0496 30.9513C32.061 31.0487 32.0544 31.1458 32.0303 31.2371C32.0062 31.3283 31.965 31.4119 31.9091 31.483C31.8532 31.5541 31.7837 31.6113 31.7045 31.6515C31.6253 31.6916 31.538 31.7139 31.4476 31.7169C31.3572 31.72 31.2655 31.7038 31.1777 31.6694C31.0898 31.6349 31.0076 31.5828 30.9357 31.516C30.8638 31.4493 30.8037 31.3692 30.7587 31.2803C30.7136 31.1915 30.6845 31.0956 30.6731 30.9981C30.6618 30.9007 30.6683 30.8036 30.6924 30.7123C30.7165 30.6211 30.7577 30.5376 30.8136 30.4664C30.8695 30.3953 30.939 30.3381 31.0182 30.2979C31.0974 30.2578 31.1847 30.2355 31.2751 30.2325C31.3655 30.2294 31.4572 30.2456 31.5451 30.28C31.6329 30.3145 31.7151 30.3666 31.787 30.4334C31.8589 30.5001 31.9191 30.5802 31.9641 30.6691Z" fill="url(#paint10_linear_797_1634)"/>
</g>
<g filter="url(#filter7_f_797_1634)">
<path fill-rule="evenodd" clip-rule="evenodd" d="M30.8601 31.717C31.3585 32.107 33.2342 32.157 32.5226 31.0235C32.7081 31.9113 31.427 31.8174 30.8601 31.717Z" fill="url(#paint11_radial_797_1634)"/>
</g>
<path fill-rule="evenodd" clip-rule="evenodd" d="M7.7085 25.8413C7.7085 25.7392 14.0992 27.7889 15.1938 28.8848C14.2937 28.0065 9.73862 25.9867 9.04516 25.9647C8.35169 25.9427 7.79075 25.8824 7.7085 25.8413Z" fill="url(#paint12_radial_797_1634)"/>
<path opacity="0.285714" d="M12.5093 30.2319C12.5342 30.306 12.4371 30.4035 12.2394 30.5031C12.0417 30.6027 11.7597 30.6962 11.4552 30.763C11.1508 30.8299 10.849 30.8646 10.6161 30.8595C10.3833 30.8544 10.2385 30.81 10.2136 30.736C10.1888 30.662 10.2859 30.5644 10.4835 30.4648C10.6812 30.3652 10.9633 30.2717 11.2677 30.2049C11.5721 30.1381 11.874 30.1034 12.1068 30.1084C12.3397 30.1135 12.4844 30.1579 12.5093 30.2319Z" fill="url(#paint13_linear_797_1634)"/>
<g opacity="0.620689" filter="url(#filter8_f_797_1634)">
<path d="M13.0154 30.4666C13.0689 30.626 12.9575 30.8146 12.7055 30.991C12.4536 31.1674 12.0817 31.317 11.6718 31.407C11.2619 31.497 10.8476 31.52 10.5198 31.4709C10.1921 31.4218 9.97794 31.3047 9.92437 31.1453C9.87081 30.9858 9.98227 30.7972 10.2342 30.6209C10.4862 30.4445 10.858 30.2949 11.2679 30.2049C11.6778 30.1149 12.0922 30.0919 12.4199 30.141C12.7476 30.1901 12.9618 30.3072 13.0154 30.4666Z" fill="url(#paint14_linear_797_1634)"/>
</g>
<g opacity="0.615764" filter="url(#filter9_f_797_1634)">
<path fill-rule="evenodd" clip-rule="evenodd" d="M9.75488 31.2702C9.75488 31.2702 10.1009 32.1998 11.0504 32.247C12.011 32.2947 13.1074 31.0943 13.1994 30.6636C13.0348 31.0337 12.1152 32.1497 10.927 32.1339C10.2526 32.125 9.75488 31.2702 9.75488 31.2702Z" fill="url(#paint15_radial_797_1634)"/>
</g>
<g filter="url(#filter10_f_797_1634)">
<path d="M19.8162 2.72241C18.8539 2.72241 17.9108 3.07093 17.244 3.7513L4.45091 16.855C3.28128 18.0246 3.0003 18.7903 3.07259 19.2234C3.10874 19.4399 3.21503 19.6281 3.44144 19.8252C3.66784 20.0222 4.01031 20.2154 4.42179 20.3882C5.24474 20.7336 6.35313 21.0119 7.44049 21.3103C8.52786 21.6087 9.59294 21.9236 10.401 22.4362C10.5242 22.5164 10.6398 22.6153 10.7213 22.7565C10.8027 22.8978 10.8313 23.0846 10.7989 23.2418C10.7342 23.5564 10.5405 23.7224 10.3427 23.8728C9.94718 24.1736 9.40368 24.4235 8.85764 24.6881C8.31159 24.9527 7.76277 25.2234 7.48903 25.4452C7.35215 25.5561 7.30263 25.6558 7.3046 25.649C7.30659 25.6423 7.26831 25.5642 7.33372 25.6296C7.5051 25.8058 8.04006 26.1074 8.72175 26.377C9.40343 26.6467 10.2377 26.9192 11.0804 27.1924C11.9231 27.4655 12.7755 27.7359 13.4973 28.0174C14.2191 28.2989 14.8074 28.5607 15.1959 28.9492C15.3894 29.148 15.526 29.3953 15.5551 29.6481C15.5842 29.901 15.5157 30.1383 15.4192 30.3373C15.2262 30.7353 14.9159 31.0415 14.633 31.337C14.35 31.6326 14.0937 31.9149 14.0021 32.1038C13.9562 32.1983 13.9491 32.2599 13.9535 32.298C13.9579 32.336 13.9644 32.3744 14.0506 32.463C14.0539 32.4662 14.0571 32.4694 14.0603 32.4727C14.431 32.8646 15.2366 32.9197 16.1472 33.1327C16.6025 33.2392 17.0787 33.4005 17.4867 33.7539C17.8947 34.1074 18.2009 34.6456 18.3311 35.3749C18.3859 35.6838 18.5494 35.8342 18.9426 35.9573C19.3359 36.0804 19.9348 36.1019 20.5927 36.0058C21.9086 35.8137 23.469 35.1686 24.3685 34.4237C24.4244 34.3762 24.4089 34.3887 24.4268 34.3654C24.3663 34.3221 24.2244 34.2299 23.99 34.1131C23.7131 33.9751 23.386 33.8461 23.1358 33.5307C23.0108 33.373 22.9246 33.124 22.9611 32.8804C22.9976 32.6367 23.131 32.434 23.3105 32.2494C24.7846 30.759 26.2371 30.4031 27.329 30.114C27.875 29.9694 28.332 29.8372 28.6782 29.619C29.0244 29.4008 29.2948 29.1022 29.5227 28.5222C29.5478 28.4594 29.5471 28.4411 29.513 28.3669C29.4789 28.2926 29.3873 28.1737 29.2412 28.0465C28.9489 27.7921 28.4614 27.5188 27.9793 27.2506C27.4973 26.9825 27.0287 26.7324 26.6884 26.4159C26.5182 26.2576 26.3399 26.0582 26.3195 25.7558C26.2992 25.4535 26.4974 25.1807 26.7272 25.0181C27.58 24.4177 28.8692 23.9605 30.2701 23.4748C31.6709 22.9891 33.1777 22.4864 34.405 21.9121C35.6323 21.3377 36.5349 20.6763 36.8219 20.0096C36.9654 19.6763 36.9917 19.3391 36.8413 18.9031C36.691 18.467 36.3476 17.9337 35.7348 17.3209L22.4855 3.761C22.4822 3.75787 22.4791 3.75442 22.4758 3.7513C21.7435 3.06556 20.7742 2.72241 19.8162 2.72241ZM34.0847 27.5709C33.2662 27.6005 32.5132 27.9751 32.1919 28.561C32.2832 28.5953 32.3654 28.634 32.5123 28.6678C32.9395 28.766 33.5358 28.8295 34.1235 28.8425C34.7112 28.8554 35.2989 28.806 35.6571 28.7066C35.814 28.6631 35.897 28.6191 35.9386 28.5901C35.8592 28.2512 35.67 28.0117 35.3465 27.833C35.0115 27.6479 34.5524 27.554 34.0847 27.5709ZM12.1869 30.3858C11.5378 30.3407 10.722 30.599 10.3233 30.9197C10.124 31.08 10.0396 31.2285 10.0321 31.3273C10.0246 31.4261 10.0561 31.5578 10.3233 31.7835C10.3233 31.7868 10.3233 31.79 10.3233 31.7932C10.7435 32.1566 11.2186 32.1187 11.7599 31.8223C12.2136 31.5738 12.6163 31.1077 12.8858 30.6187C12.7041 30.5015 12.4868 30.4067 12.1869 30.3858ZM31.1339 30.5799C30.995 30.7565 30.9193 30.921 30.9107 31.0361C30.8988 31.1951 30.9438 31.3179 31.066 31.4341C31.295 31.6518 31.7925 31.7456 32.2987 31.4729C32.2887 31.4142 32.2697 31.3251 32.1919 31.2108C32.0367 30.9828 31.6737 30.7371 31.1339 30.5799Z" stroke="url(#paint16_radial_797_1634)" stroke-width="0.194139"/>
</g>
<g opacity="0.325123" filter="url(#filter11_f_797_1634)">
<path fill-rule="evenodd" clip-rule="evenodd" d="M12.8016 23.2429C12.0295 23.4707 9.52674 24.4164 9.88196 25.1388C10.2222 25.8308 16.0415 26.1097 16.9347 28.1722C17.3241 29.0717 16.041 29.7501 16.3659 30.6748C16.6161 31.3869 18.5518 33.176 19.7764 34.0219C20.7369 34.6853 21.9985 33.4876 21.4848 32.4949C20.6664 30.9133 24.282 28.9762 25.9212 28.0964C26.8775 27.5831 23.9495 25.063 23.9495 25.063L12.8016 23.2429Z" fill="url(#paint17_linear_797_1634)"/>
</g>
<path fill-rule="evenodd" clip-rule="evenodd" d="M13.0872 23.9413C13.7805 24.4504 15.1486 24.1434 15.9703 24.5134C17.9425 25.4014 20.3669 26.3911 19.9208 24.639L19.4189 25.0559L19.4091 24.2615L18.2437 24.5461C18.2437 24.5461 17.3411 23.8215 16.9272 23.5826C16.8408 23.5327 16.3968 23.9841 16.3968 23.9841L16.317 23.5046C15.7401 23.4432 15.1689 23.4162 14.6661 23.4202C13.4606 23.4299 12.6474 23.6183 13.0872 23.9413Z" fill="url(#paint18_linear_797_1634)"/>
<g opacity="0.477832" filter="url(#filter12_f_797_1634)">
<path fill-rule="evenodd" clip-rule="evenodd" d="M26.0349 25.5559C25.768 26.5385 29.3152 27.8734 29.0494 28.5514C28.4641 30.0441 25.2613 29.0273 22.8119 32.1536C22.4611 32.6014 23.3049 34.2012 23.1911 34.0116C23.0773 33.822 22.2106 32.5005 22.4327 31.8503C23.1296 29.811 29.8666 29.0508 28.6323 28.0774C27.9225 27.5177 25.3705 25.9712 26.0349 25.5559Z" fill="url(#paint19_radial_797_1634)"/>
</g>
<path opacity="0.586207" d="M34.0166 27.575C34.0166 27.6177 33.9756 27.6587 33.9027 27.6889C33.8299 27.7191 33.731 27.7361 33.6279 27.7361C33.5248 27.7361 33.426 27.7191 33.3531 27.6889C33.2802 27.6587 33.2393 27.6177 33.2393 27.575C33.2393 27.5322 33.2802 27.4912 33.3531 27.461C33.426 27.4308 33.5248 27.4138 33.6279 27.4138C33.731 27.4138 33.8299 27.4308 33.9027 27.461C33.9756 27.4912 34.0166 27.5322 34.0166 27.575Z" fill="white"/>
<path opacity="0.586207" d="M31.4192 30.5515C31.4192 30.5943 31.3932 30.6353 31.347 30.6655C31.3008 30.6957 31.2381 30.7127 31.1727 30.7127C31.1074 30.7127 31.0447 30.6957 30.9985 30.6655C30.9522 30.6353 30.9263 30.5943 30.9263 30.5515C30.9263 30.5088 30.9522 30.4678 30.9985 30.4376C31.0447 30.4074 31.1074 30.3904 31.1727 30.3904C31.2381 30.3904 31.3008 30.4074 31.347 30.4376C31.3932 30.4678 31.4192 30.5088 31.4192 30.5515Z" fill="white"/>
<path opacity="0.586207" d="M11.7588 30.4093C11.7588 30.4521 11.7129 30.493 11.6311 30.5233C11.5493 30.5535 11.4384 30.5705 11.3228 30.5705C11.2071 30.5705 11.0962 30.5535 11.0144 30.5233C10.9327 30.493 10.8867 30.4521 10.8867 30.4093C10.8867 30.3666 10.9327 30.3256 11.0144 30.2954C11.0962 30.2651 11.2071 30.2482 11.3228 30.2482C11.4384 30.2482 11.5493 30.2651 11.6311 30.2954C11.7129 30.3256 11.7588 30.3666 11.7588 30.4093Z" fill="white"/>
<path opacity="0.251232" d="M11.5123 23.3187C9.29052 24.6929 5.83625 25.193 9.61639 26.1057C9.1661 25.103 10.5913 25.2136 11.5123 23.3187Z" fill="url(#paint20_linear_797_1634)"/>
<g opacity="0.363158" filter="url(#filter13_f_797_1634)">
<path d="M19.3993 35.8315C19.3993 35.8315 22.8259 35.5088 23.6185 34.5201C24.0823 33.9417 21.7755 33.2667 22.2735 32.7001C24.1466 30.5685 25.7211 30.6575 27.8929 29.7647C30.0648 28.8719 29.2633 28.4347 28.5609 28.0427C27.3577 27.3713 24.68 26.656 25.5658 25.0629C26.4572 23.4597 34.2631 21.2332 34.2631 21.2332C36.6286 20.425 36.3318 18.9635 35.1731 17.7447L28.1963 10.8058C28.1963 10.8058 28.5425 17.3866 27.1346 20.2094C25.3947 23.6977 16.1317 27.59 20.006 28.0205C21.3711 28.1721 22.0264 28.6378 22.5844 29.6888C23.7335 31.853 19.3993 35.8315 19.3993 35.8315Z" fill="url(#paint21_linear_797_1634)"/>
</g>
</g>
<defs>
<filter id="filter0_f_797_1634" x="1.96158" y="1.92911" width="36.0771" height="35.5351" filterUnits="userSpaceOnUse" color-interpolation-filters="sRGB">
<feFlood flood-opacity="0" result="BackgroundImageFix"/>
<feBlend mode="normal" in="SourceGraphic" in2="BackgroundImageFix" result="shape"/>
<feGaussianBlur stdDeviation="0.320234" result="effect1_foregroundBlur_797_1634"/>
</filter>
<filter id="filter1_f_797_1634" x="-0.173308" y="0.0974441" width="40.3469" height="39.8049" filterUnits="userSpaceOnUse" color-interpolation-filters="sRGB">
<feFlood flood-opacity="0" result="BackgroundImageFix"/>
<feBlend mode="normal" in="SourceGraphic" in2="BackgroundImageFix" result="shape"/>
<feGaussianBlur stdDeviation="1.38768" result="effect1_foregroundBlur_797_1634"/>
</filter>
<filter id="filter2_f_797_1634" x="13.2775" y="27.8958" width="11.5498" height="8.41709" filterUnits="userSpaceOnUse" color-interpolation-filters="sRGB">
<feFlood flood-opacity="0" result="BackgroundImageFix"/>
<feBlend mode="normal" in="SourceGraphic" in2="BackgroundImageFix" result="shape"/>
<feGaussianBlur stdDeviation="0.412287" result="effect1_foregroundBlur_797_1634"/>
</filter>
<filter id="filter3_f_797_1634" x="24.5424" y="19.3964" width="13.0544" height="6.55619" filterUnits="userSpaceOnUse" color-interpolation-filters="sRGB">
<feFlood flood-opacity="0" result="BackgroundImageFix"/>
<feBlend mode="normal" in="SourceGraphic" in2="BackgroundImageFix" result="shape"/>
<feGaussianBlur stdDeviation="0.446329" result="effect1_foregroundBlur_797_1634"/>
</filter>
<filter id="filter4_f_797_1634" x="31.9389" y="26.8961" width="4.32702" height="2.53808" filterUnits="userSpaceOnUse" color-interpolation-filters="sRGB">
<feFlood flood-opacity="0" result="BackgroundImageFix"/>
<feBlend mode="normal" in="SourceGraphic" in2="BackgroundImageFix" result="shape"/>
<feGaussianBlur stdDeviation="0.202667" result="effect1_foregroundBlur_797_1634"/>
</filter>
<filter id="filter5_f_797_1634" x="31.3612" y="28.135" width="5.32834" height="1.37631" filterUnits="userSpaceOnUse" color-interpolation-filters="sRGB">
<feFlood flood-opacity="0" result="BackgroundImageFix"/>
<feBlend mode="normal" in="SourceGraphic" in2="BackgroundImageFix" result="shape"/>
<feGaussianBlur stdDeviation="0.172782" result="effect1_foregroundBlur_797_1634"/>
</filter>
<filter id="filter6_f_797_1634" x="30.4012" y="29.9655" width="1.92026" height="2.01828" filterUnits="userSpaceOnUse" color-interpolation-filters="sRGB">
<feFlood flood-opacity="0" result="BackgroundImageFix"/>
<feBlend mode="normal" in="SourceGraphic" in2="BackgroundImageFix" result="shape"/>
<feGaussianBlur stdDeviation="0.133263" result="effect1_foregroundBlur_797_1634"/>
</filter>
<filter id="filter7_f_797_1634" x="30.6329" y="30.7962" width="2.27599" height="1.39915" filterUnits="userSpaceOnUse" color-interpolation-filters="sRGB">
<feFlood flood-opacity="0" result="BackgroundImageFix"/>
<feBlend mode="normal" in="SourceGraphic" in2="BackgroundImageFix" result="shape"/>
<feGaussianBlur stdDeviation="0.113613" result="effect1_foregroundBlur_797_1634"/>
</filter>
<filter id="filter8_f_797_1634" x="9.58166" y="29.7863" width="3.77638" height="2.03944" filterUnits="userSpaceOnUse" color-interpolation-filters="sRGB">
<feFlood flood-opacity="0" result="BackgroundImageFix"/>
<feBlend mode="normal" in="SourceGraphic" in2="BackgroundImageFix" result="shape"/>
<feGaussianBlur stdDeviation="0.164736" result="effect1_foregroundBlur_797_1634"/>
</filter>
<filter id="filter9_f_797_1634" x="9.47499" y="30.3837" width="4.00436" height="2.14462" filterUnits="userSpaceOnUse" color-interpolation-filters="sRGB">
<feFlood flood-opacity="0" result="BackgroundImageFix"/>
<feBlend mode="normal" in="SourceGraphic" in2="BackgroundImageFix" result="shape"/>
<feGaussianBlur stdDeviation="0.139945" result="effect1_foregroundBlur_797_1634"/>
</filter>
<filter id="filter10_f_797_1634" x="2.70554" y="2.36606" width="34.5933" height="34.0561" filterUnits="userSpaceOnUse" color-interpolation-filters="sRGB">
<feFlood flood-opacity="0" result="BackgroundImageFix"/>
<feBlend mode="normal" in="SourceGraphic" in2="BackgroundImageFix" result="shape"/>
<feGaussianBlur stdDeviation="0.129652" result="effect1_foregroundBlur_797_1634"/>
</filter>
<filter id="filter11_f_797_1634" x="8.41614" y="21.8114" width="19.1284" height="13.8333" filterUnits="userSpaceOnUse" color-interpolation-filters="sRGB">
<feFlood flood-opacity="0" result="BackgroundImageFix"/>
<feBlend mode="normal" in="SourceGraphic" in2="BackgroundImageFix" result="shape"/>
<feGaussianBlur stdDeviation="0.715759" result="effect1_foregroundBlur_797_1634"/>
</filter>
<filter id="filter12_f_797_1634" x="21.9147" y="25.0741" width="7.63089" height="9.43485" filterUnits="userSpaceOnUse" color-interpolation-filters="sRGB">
<feFlood flood-opacity="0" result="BackgroundImageFix"/>
<feBlend mode="normal" in="SourceGraphic" in2="BackgroundImageFix" result="shape"/>
<feGaussianBlur stdDeviation="0.240914" result="effect1_foregroundBlur_797_1634"/>
</filter>
<filter id="filter13_f_797_1634" x="17.9922" y="9.73038" width="19.133" height="27.1766" filterUnits="userSpaceOnUse" color-interpolation-filters="sRGB">
<feFlood flood-opacity="0" result="BackgroundImageFix"/>
<feBlend mode="normal" in="SourceGraphic" in2="BackgroundImageFix" result="shape"/>
<feGaussianBlur stdDeviation="0.537702" result="effect1_foregroundBlur_797_1634"/>
</filter>
<linearGradient id="paint0_linear_797_1634" x1="10.3451" y1="10.4005" x2="18.1815" y2="18.237" gradientUnits="userSpaceOnUse">
<stop stop-color="white"/>
<stop offset="1" stop-color="white" stop-opacity="0"/>
</linearGradient>
<linearGradient id="paint1_linear_797_1634" x1="18.758" y1="5.7605" x2="28.0762" y2="15.0787" gradientUnits="userSpaceOnUse">
<stop stop-color="white"/>
<stop offset="1" stop-color="white" stop-opacity="0"/>
</linearGradient>
<radialGradient id="paint2_radial_797_1634" cx="0" cy="0" r="1" gradientUnits="userSpaceOnUse" gradientTransform="translate(14.1021 34.9849) scale(7.90364 5.29039)">
<stop stop-color="white"/>
<stop offset="1" stop-color="white" stop-opacity="0"/>
</radialGradient>
<radialGradient id="paint3_radial_797_1634" cx="0" cy="0" r="1" gradientUnits="userSpaceOnUse" gradientTransform="translate(18.2693 35.1745) scale(10.0844 6.75009)">
<stop stop-color="white"/>
<stop offset="1" stop-color="white" stop-opacity="0"/>
</radialGradient>
<radialGradient id="paint4_radial_797_1634" cx="0" cy="0" r="1" gradientUnits="userSpaceOnUse" gradientTransform="translate(31.0696 22.9625) scale(5.63454 2.38543)">
<stop stop-color="white"/>
<stop offset="1" stop-color="white" stop-opacity="0"/>
</radialGradient>
<radialGradient id="paint5_radial_797_1634" cx="0" cy="0" r="1" gradientUnits="userSpaceOnUse" gradientTransform="translate(32.2623 23.6204) scale(5.63454 2.38543)">
<stop stop-color="white"/>
<stop offset="1" stop-color="white" stop-opacity="0"/>
</radialGradient>
<linearGradient id="paint6_linear_797_1634" x1="34.3803" y1="27.0649" x2="34.4009" y2="28.1034" gradientUnits="userSpaceOnUse">
<stop stop-color="white"/>
<stop offset="1" stop-color="white" stop-opacity="0"/>
</linearGradient>
<linearGradient id="paint7_linear_797_1634" x1="34.4212" y1="26.9458" x2="34.4212" y2="28.5226" gradientUnits="userSpaceOnUse">
<stop stop-color="white"/>
<stop offset="1" stop-color="white" stop-opacity="0"/>
</linearGradient>
<radialGradient id="paint8_radial_797_1634" cx="0" cy="0" r="1" gradientUnits="userSpaceOnUse" gradientTransform="translate(34.0254 28.8232) scale(2.31859 0.342562)">
<stop stop-color="white"/>
<stop offset="1" stop-color="white" stop-opacity="0"/>
</radialGradient>
<linearGradient id="paint9_linear_797_1634" x1="31.125" y1="30.1448" x2="31.6362" y2="31.048" gradientUnits="userSpaceOnUse">
<stop stop-color="white"/>
<stop offset="1" stop-color="white" stop-opacity="0"/>
</linearGradient>
<linearGradient id="paint10_linear_797_1634" x1="30.9329" y1="29.8248" x2="31.6459" y2="31.2312" gradientUnits="userSpaceOnUse">
<stop stop-color="white"/>
<stop offset="1" stop-color="white" stop-opacity="0"/>
</linearGradient>
<radialGradient id="paint11_radial_797_1634" cx="0" cy="0" r="1" gradientUnits="userSpaceOnUse" gradientTransform="translate(31.7833 31.7824) rotate(-26.8861) scale(1.0025 0.342561)">
<stop stop-color="white"/>
<stop offset="1" stop-color="white" stop-opacity="0"/>
</radialGradient>
<radialGradient id="paint12_radial_797_1634" cx="0" cy="0" r="1" gradientUnits="userSpaceOnUse" gradientTransform="translate(11.2661 26.8677) scale(3.74265 1.52358)">
<stop stop-color="white" stop-opacity="0.330049"/>
<stop offset="1" stop-color="white" stop-opacity="0"/>
</radialGradient>
<linearGradient id="paint13_linear_797_1634" x1="11.4564" y1="29.9867" x2="11.6312" y2="30.7258" gradientUnits="userSpaceOnUse">
<stop stop-color="white"/>
<stop offset="1" stop-color="white" stop-opacity="0"/>
</linearGradient>
<linearGradient id="paint14_linear_797_1634" x1="11.4649" y1="29.8958" x2="11.7117" y2="31.02" gradientUnits="userSpaceOnUse">
<stop stop-color="white"/>
<stop offset="1" stop-color="white" stop-opacity="0"/>
</linearGradient>
<radialGradient id="paint15_radial_797_1634" cx="0" cy="0" r="1" gradientUnits="userSpaceOnUse" gradientTransform="translate(11.364 32.186) rotate(-15.4869) scale(2.11788 0.792406)">
<stop stop-color="white"/>
<stop offset="1" stop-color="white" stop-opacity="0"/>
</radialGradient>
<radialGradient id="paint16_radial_797_1634" cx="0" cy="0" r="1" gradientUnits="userSpaceOnUse" gradientTransform="translate(21.3673 6.3504) scale(29.3043 28.8418)">
<stop stop-color="white"/>
<stop offset="1" stop-color="white" stop-opacity="0"/>
</radialGradient>
<linearGradient id="paint17_linear_797_1634" x1="12.8016" y1="28.728" x2="21.5986" y2="31.054" gradientUnits="userSpaceOnUse">
<stop stop-color="white"/>
<stop offset="1" stop-color="white" stop-opacity="0"/>
</linearGradient>
<linearGradient id="paint18_linear_797_1634" x1="17.4649" y1="23.3803" x2="16.4768" y2="25.6444" gradientUnits="userSpaceOnUse">
<stop stop-color="#EEEEEC"/>
<stop offset="1" stop-color="#EEEEEC" stop-opacity="0"/>
</linearGradient>
<radialGradient id="paint19_radial_797_1634" cx="0" cy="0" r="1" gradientUnits="userSpaceOnUse" gradientTransform="translate(25.804 29.6967) scale(4.60532 5.85263)">
<stop stop-color="white"/>
<stop offset="1" stop-color="white" stop-opacity="0"/>
</radialGradient>
<linearGradient id="paint20_linear_797_1634" x1="9.54056" y1="24.1529" x2="10.9246" y2="25.2525" gradientUnits="userSpaceOnUse">
<stop stop-color="white"/>
<stop offset="1" stop-color="white" stop-opacity="0"/>
</linearGradient>
<linearGradient id="paint21_linear_797_1634" x1="25.7412" y1="30.1439" x2="21.629" y2="19.0719" gradientUnits="userSpaceOnUse">
<stop stop-color="#729FCF"/>
<stop offset="1" stop-color="#729FCF" stop-opacity="0"/>
</linearGradient>
<clipPath id="clip0_797_1634">
<rect width="40" height="40" fill="white"/>
</clipPath>
</defs>
</svg>
