<svg width="40" height="40" viewBox="0 0 40 40" fill="none" xmlns="http://www.w3.org/2000/svg">
<g clip-path="url(#clip0_797_1631)">
<path d="M20 40C28.75 40 33.6375 40 36.8125 36.825C39.9875 33.65 40 28.75 40 20C40 11.25 40 6.375 36.8125 3.2C33.625 0.025 28.75 0 20 0C11.25 0 6.3625 0 3.1875 3.175C0.0125 6.35 0 11.25 0 20C0 28.75 0 33.625 3.1875 36.8C6.375 39.975 11.25 40 20 40Z" fill="#EF3939"/>
<path d="M30.5375 9.41251C28.4419 7.30932 25.7693 5.87535 22.8581 5.29219C19.9469 4.70903 16.9281 5.00293 14.1841 6.13666C11.44 7.27038 9.09418 9.19294 7.44357 11.6608C5.79296 14.1287 4.91187 17.031 4.91187 20C4.91187 22.969 5.79296 25.8713 7.44357 28.3392C9.09418 30.8071 11.44 32.7296 14.1841 33.8634C16.9281 34.9971 19.9469 35.291 22.8581 34.7078C25.7693 34.1247 28.4419 32.6907 30.5375 30.5875C33.3389 27.776 34.9119 23.9689 34.9119 20C34.9119 16.0311 33.3389 12.224 30.5375 9.41251ZM29.6375 16.25L22.225 29.1875C22.0294 29.5681 21.7393 29.8921 21.3825 30.1285C21.0258 30.3649 20.6143 30.5057 20.1875 30.5375C19.7156 30.5894 19.2389 30.4979 18.8197 30.275C18.4006 30.052 18.0583 29.7079 17.8375 29.2875C16.25 26.5875 14.7375 23.8875 13.1875 21.25L10.35 16.25C10.1356 15.8801 10.0196 15.4615 10.0132 15.034C10.0067 14.6065 10.11 14.1845 10.3131 13.8083C10.5163 13.4321 10.8125 13.1143 11.1735 12.8853C11.5345 12.6562 11.9482 12.5236 12.375 12.5C12.8364 12.4642 13.2983 12.5633 13.7044 12.7853C14.1106 13.0072 14.4434 13.3424 14.6625 13.75C15.3625 15 16.0375 16.15 16.7375 17.35C17.2375 18.2125 17.725 19.0875 18.2375 19.9375C18.5625 20.5288 19.0348 21.026 19.6087 21.3808C20.1825 21.7356 20.8384 21.936 21.5125 21.9625C22.5345 22.023 23.5406 21.6882 24.3224 21.0274C25.1043 20.3665 25.602 19.4303 25.7125 18.4125V18C25.7163 17.3547 25.5708 16.7173 25.2875 16.1375C25.1322 15.8159 25.0475 15.4648 25.0393 15.1077C25.031 14.7506 25.0994 14.3959 25.2398 14.0675C25.3801 13.7391 25.5892 13.4446 25.853 13.2037C26.1168 12.9629 26.4291 12.7814 26.7689 12.6715C27.1087 12.5615 27.4681 12.5256 27.823 12.5662C28.1778 12.6069 28.5198 12.7231 28.826 12.907C29.1322 13.0909 29.3954 13.3383 29.5979 13.6325C29.8004 13.9267 29.9375 14.2609 30 14.6125C30.0634 15.1834 29.9359 15.7592 29.6375 16.25Z" fill="white"/>
</g>
<defs>
<clipPath id="clip0_797_1631">
<rect width="40" height="40" fill="white"/>
</clipPath>
</defs>
</svg>
